<svg width="104" height="103" viewBox="0 0 104 103" fill="none" xmlns="http://www.w3.org/2000/svg">
<path fill-rule="evenodd" clip-rule="evenodd" d="M48.9693 40.2857C48.6486 40.0754 48.328 39.8651 48.009 39.6532C46.6632 40.5177 45.3215 41.3862 43.9799 42.2547C41.4558 43.8885 38.9318 45.5223 36.3811 47.1294C35.4608 44.3406 33.4773 42.1012 30.6795 41.2295C28.7056 40.6145 26.2575 40.6948 23.7261 40.7778C22.1997 40.8279 20.643 40.8789 19.1416 40.7791V59.56C20.6786 59.4884 22.2056 59.5319 23.6853 59.574C25.2791 59.6193 26.8179 59.6631 28.2552 59.56C32.6993 59.2403 35.3851 56.5352 36.516 52.9393C38.4202 54.1852 40.2923 55.4634 42.1643 56.7416C44.1301 58.0838 46.0959 59.426 48.0988 60.7308C49.3859 59.907 50.6813 59.0634 51.9783 58.2186C54.4654 56.5988 56.9587 54.9749 59.4121 53.4796V59.56H72.1177V53.5697C71.366 53.5584 70.597 53.5644 69.828 53.5704C68.5759 53.5802 67.3237 53.59 66.1464 53.525V40.7791H59.4121V47.1747C58.5789 47.7077 57.7478 48.2428 56.9166 48.7779C54.6944 50.2088 52.4721 51.6397 50.2088 53.0294C50.0315 52.9135 49.8467 52.8051 49.6619 52.6967C49.3369 52.5061 49.0117 52.3154 48.7275 52.0835C50.0007 51.258 51.2606 50.4192 52.5205 49.5803C54.2379 48.4368 55.9553 47.2934 57.7065 46.1837C56.4524 45.2349 55.1146 44.3702 53.7557 43.5264C50.9599 45.3212 48.1533 47.1047 45.3467 48.8883C45.1118 49.0376 44.8769 49.1869 44.6419 49.3363C44.4129 49.1605 44.1681 49.0005 43.9233 48.8406C43.6788 48.6808 43.4343 48.521 43.2054 48.3455C44.4594 47.5439 45.7061 46.7349 46.9528 45.9259C48.7048 44.789 50.4568 43.652 52.2291 42.5356C51.1874 41.7405 50.0783 41.0131 48.9693 40.2857ZM25.5614 53.5699V46.8143C25.5575 46.7504 25.5542 46.6867 25.6061 46.6791C27.5504 46.5542 28.9515 46.7556 29.7813 47.7149C31.0248 49.1527 30.7411 51.8511 29.3324 52.9395C28.4785 53.5994 27.4023 53.5882 26.0226 53.5738C25.8725 53.5723 25.7188 53.5706 25.5614 53.5699Z" fill="#0083CA"/>
<path d="M80.6023 40.7791H73.8682C73.8159 40.7867 73.8194 40.8499 73.8228 40.9135L73.8229 59.5602H86.5284V53.5699H80.6023V40.7791Z" fill="#0083CA"/>
<path fill-rule="evenodd" clip-rule="evenodd" d="M53.5305 6.41479H50.7471C37.2976 7.1576 27.5443 12.352 20.3985 19.5212C13.2854 26.6571 7.96611 36.2893 7.28917 49.8773C7.29672 49.9297 7.27949 49.9575 7.24426 49.9674V52.6696C7.9512 66.3096 13.2416 75.8426 20.3983 83.0706C27.555 90.299 37.21 95.4543 50.7471 96.2218H53.4856C67.2922 95.5403 76.4388 90.1846 83.8793 83.1158C90.9622 75.674 96.3459 66.5277 97.0333 52.6696V49.9674C96.3264 36.3273 91.0362 26.7942 83.8793 19.5662C76.7226 12.3382 67.0694 7.18071 53.5305 6.41479ZM34.7198 15.5576C36.888 14.4819 39.2802 13.5719 41.9477 12.8553C44.6353 12.1333 47.5806 11.7434 50.7028 11.5942C57.0536 11.2909 62.9834 12.7048 67.5384 14.6118C72.233 16.5773 76.2168 19.2967 79.5252 22.4935C86.2115 28.9545 91.2779 37.4269 91.8711 49.9221C92.1845 56.5182 90.735 61.9633 88.8182 66.6767C85.0282 75.9944 78.1901 82.7474 69.5133 87.1242C65.086 89.3573 59.7424 90.7479 53.5756 91.0425C47.1466 91.3498 41.4375 89.9791 36.83 88.0251C27.5126 84.0736 20.78 77.5721 16.3578 68.7483C14.1185 64.2795 12.701 59.0369 12.4073 52.8046C11.9416 42.919 15.1576 35.3801 18.872 29.5196C22.6775 23.5156 28.12 18.8316 34.7198 15.5576Z" fill="#0083CA"/>
</svg>
