<svg width="103" height="103" viewBox="0 0 103 103" fill="none" xmlns="http://www.w3.org/2000/svg">
<path fill-rule="evenodd" clip-rule="evenodd" d="M47.135 27.674C45.4525 26.7567 43.344 27.0173 41.6941 27.8856C39.2627 29.1963 37.591 31.5382 36.3672 33.9537C35.0673 36.4367 34.53 39.2101 34.2749 41.9726C33.0755 41.8125 32.1094 40.8817 31.8326 39.7148C31.3818 38.3382 31.6793 36.9334 31.9708 35.5572C32.0407 35.227 32.1103 34.8985 32.1691 34.5724C32.2725 34.2002 32.0813 33.8801 31.8968 33.5711C31.8391 33.4745 31.7821 33.379 31.7349 33.2834C30.7146 33.221 29.6725 33.723 29.2085 34.6592C27.8191 37.2562 27.9412 40.7596 29.8625 43.0635C30.9642 44.4583 32.7037 45.1476 34.4323 45.3321C35.0157 47.1286 36.1555 48.8816 37.9872 49.5872C40.2287 50.4908 42.69 49.5438 44.6384 48.366C44.6289 48.4638 44.6199 48.562 44.6109 48.6603C44.5537 49.2875 44.4957 49.9221 44.2775 50.518C43.8069 50.8971 43.2655 51.1683 42.7242 51.4394C42.479 51.5622 42.2339 51.685 41.9953 51.8178L41.7828 51.9298C38.0928 53.8743 34.3484 55.8474 31.2492 58.678C28.948 60.8378 27.1379 63.7116 26.7906 66.8947C26.6223 69.397 27.6183 72.143 29.8109 73.5188C32.1013 75.0358 35.1216 74.9519 37.6182 74.0103C40.766 72.8108 43.1134 70.1403 44.6656 67.2261C46.9614 63.101 47.3548 58.2899 47.6886 53.674C47.709 53.5548 47.7193 53.4246 47.7298 53.2916C47.7671 52.822 47.8071 52.3172 48.3019 52.1353C52.0522 50.0268 55.6964 47.731 59.1808 45.2046C59.5935 45.712 60.0006 46.2222 60.3886 46.746C58.5949 47.8152 56.8063 48.9685 55.4524 50.5885C50.3887 56.1271 50.3046 65.6329 55.6126 71.0385C58.3262 73.9017 62.4974 75.1253 66.359 74.553C69.9085 74.0483 73.1375 71.8146 74.9288 68.7213C77.3165 64.7808 76.9258 59.2696 73.8216 55.8314C70.9177 52.6238 65.2651 52.6862 62.4269 55.9426C60.1935 58.2927 60.1202 62.4473 62.4513 64.7482C63.3957 65.6901 65.0401 66.2597 66.226 65.4483C66.9913 64.8975 66.918 63.72 66.3017 63.082L66.2653 63.038C65.4757 62.0847 64.5632 60.9829 64.7986 59.6574C65.0372 57.907 66.994 56.8351 68.6412 57.2072C70.052 57.427 71.1782 58.5285 71.702 59.8202C72.9369 62.7591 72.2368 66.4009 70.0197 68.6888C67.6697 71.1395 63.5826 71.5245 60.7471 69.7091C58.2285 68.1596 56.796 65.2858 56.3534 62.4337C55.8896 58.9955 56.549 55.2859 58.6817 52.4827C60.0548 50.7077 61.971 49.2504 64.1742 48.724C64.4872 48.7478 64.8021 48.7772 65.1182 48.8067C66.6708 48.9515 68.2501 49.0988 69.7562 48.6073C70.6086 48.3169 71.4387 47.3617 71.0045 46.4282C70.5351 45.4703 69.3818 45.1826 68.4211 44.9818C67.1866 44.7368 65.958 44.9854 64.7458 45.2307C64.5484 45.2707 64.3514 45.3105 64.1549 45.3481C63.1756 45.0116 62.6573 43.9832 62.2936 43.0768C65.0182 41.0415 67.7101 38.8299 69.5606 35.9344C70.6355 34.1949 71.3356 32.0593 70.8309 30.0159C70.4322 28.6617 69.3223 27.5111 67.9055 27.2533C65.5449 26.659 63.1294 27.8504 61.5257 29.541C58.9477 32.3388 57.6397 36.2166 57.7591 39.9995C57.7452 40.3062 57.7836 40.6187 57.8219 40.9307C57.8811 41.4138 57.9402 41.8955 57.8052 42.3522C56.3381 43.535 54.7395 44.5426 53.1438 45.5483C52.638 45.8671 52.1325 46.1857 51.6316 46.5096C51.2649 46.7225 50.9036 46.9452 50.5422 47.1681C49.7242 47.6724 48.906 48.1769 48.0251 48.5666C48.0468 47.3617 48.1092 46.1405 48.4539 44.9791C48.7789 44.5345 49.1337 44.1105 49.4887 43.6862C50.1327 42.9166 50.7774 42.1461 51.2462 41.2505C51.7781 40.2926 52.2802 39.0796 51.7266 38.0212C51.2191 37.237 50.0956 37.3129 49.3602 37.7037C47.7917 38.4907 46.9315 40.1515 46.2992 41.7091C46.1665 42.0135 46.0698 42.3403 45.973 42.6674C45.753 43.4104 45.5325 44.1554 44.8881 44.6453C43.5964 45.7742 42.0387 46.9085 40.2423 46.8434C39.2165 46.8485 38.5327 45.8827 38.3156 44.9764C41.1541 43.8746 43.5231 41.8176 45.4444 39.4947C47.2219 37.2098 48.6357 34.5124 48.8745 31.5871C49.0075 30.1136 48.481 28.4446 47.135 27.674ZM39.819 35.2207C40.6819 33.4867 41.6805 31.7038 43.3196 30.5885C43.979 30.0891 45.0672 30.3008 45.3793 31.1068C45.6208 32.1 45.2544 33.1067 44.8311 33.9941C43.629 36.4473 41.8352 38.5748 39.7837 40.3604C39.2762 40.8244 38.6846 41.1854 38.0578 41.4622C38.1419 39.2804 38.8909 37.1773 39.819 35.2207ZM61.5962 39.568C61.5639 36.6291 62.6163 33.6712 64.5324 31.4406C65.1159 30.7676 66.1199 30.0946 67.01 30.5532C67.9872 31.1312 67.4767 32.4256 67.0914 33.218C65.7484 35.6956 63.7566 37.7851 61.5962 39.568ZM31.0785 66.1075C31.7621 63.6085 33.5995 61.6381 35.4825 59.9477C38.0144 57.8178 40.823 55.9885 43.83 54.5988C43.5125 57.9231 42.7337 61.2175 41.4773 64.3111C40.4 66.8022 38.8016 69.3666 36.153 70.387C34.7799 70.9026 32.9889 71.2255 31.8003 70.14C30.6741 69.1417 30.7501 67.4481 31.0785 66.1075Z" fill="#FEFFFE"/>
<path fill-rule="evenodd" clip-rule="evenodd" d="M71.9054 13.7854C64.7411 9.83698 56.3992 8.02967 48.2422 8.69452C42.9776 9.07172 37.8 10.4801 33.0402 12.7569C25.3822 16.4475 18.8341 22.4447 14.5872 29.8151C8.26158 40.4473 7.04042 53.9017 11.1869 65.5406C13.8463 73.1091 18.7038 79.8607 24.9835 84.8427C32.2806 90.631 41.5098 93.9661 50.8313 94.0448C57.6369 94.1943 64.4754 92.6475 70.5513 89.5838C78.2934 85.7521 84.7981 79.4862 88.9555 71.9202C93.1101 64.4087 94.9334 55.6086 94.0084 47.0686C92.7791 33.2099 84.1224 20.3688 71.9054 13.7854ZM22.0959 25.3945C26.4595 19.0716 33.3278 14.7433 40.6846 12.7569C48.1472 10.6728 56.2231 10.7623 63.6038 13.1447C63.883 13.2322 64.1066 13.423 64.3266 13.6108C64.3589 13.6383 64.391 13.6658 64.4233 13.6928C63.7266 13.6416 63.0629 13.4397 62.3985 13.2375C61.9008 13.0861 61.4027 12.9345 60.8901 12.8462C57.8725 12.2437 54.7463 11.9452 51.688 12.4011C49.7722 12.7458 47.7611 13.4866 46.5456 15.0877C45.6311 16.2763 45.5334 18.1433 46.5944 19.2722C47.7722 20.5177 49.8617 20.4499 51.167 19.4431C51.4248 19.2538 51.6813 19.0585 51.9387 18.8624C53.2203 17.8863 54.5251 16.8925 56.1273 16.5422C60.0377 15.5731 64.1384 16.3522 67.9264 17.4784C72.4745 18.7186 76.776 20.9628 80.2657 24.1459C86.0809 29.2829 89.5761 36.6587 90.9031 44.2217C92.0591 50.6748 91.712 57.4183 89.7091 63.6706C89.6388 63.9637 89.4515 64.1347 89.1476 64.1808C90.3093 59.9233 91.172 55.4048 90.3039 51.0086C89.8477 48.8865 88.8027 46.4931 86.5696 45.7685C84.8603 45.1634 82.7789 46.3384 82.6405 48.1972C82.3851 49.7561 83.3283 50.9733 84.2355 52.144C84.4859 52.4671 84.7336 52.7867 84.9525 53.109C87.1262 56.2297 86.8575 60.2761 86.3259 63.8554C85.327 68.7021 83.7097 73.527 80.7735 77.5649C76.2419 84.0696 69.0235 88.3626 61.3951 90.1971C54.7659 91.7819 47.7402 91.771 41.1215 90.1401C40.933 90.0837 40.7389 90.0341 40.5436 89.9841C39.8365 89.8033 39.1137 89.6184 38.5842 89.0953C39.3522 89.0935 40.0861 89.2959 40.8212 89.4986C41.2939 89.6289 41.7672 89.7594 42.2504 89.8359C45.6232 90.4492 49.1486 90.8291 52.5189 89.9851C54.0465 89.5645 55.5935 88.8373 56.5539 87.5293C57.4443 86.3081 57.4253 84.4387 56.3314 83.3475C55.3846 82.3489 53.8079 82.1429 52.5974 82.7722C51.9084 83.1453 51.2973 83.6337 50.6861 84.1222C50.0216 84.6533 49.357 85.1845 48.5922 85.5676C45.6316 87.0058 42.1961 86.7941 39.0374 86.2623C33.8 85.2338 28.625 83.3342 24.4025 79.9934C18.7961 75.6846 14.9128 69.3995 13.0105 62.6316C10.997 55.5462 10.9834 47.9316 12.8206 40.8082C12.9215 40.5735 12.978 40.2957 13.0352 40.0148C13.1578 39.4121 13.2834 38.7946 13.8572 38.5558C12.7826 42.6263 11.9332 46.8922 12.5872 51.1093C12.9182 52.9817 13.575 54.9654 15.1245 56.1809C16.1991 57.0683 17.8788 57.3942 19.0674 56.5418C20.3347 55.8012 20.7526 54.0428 20.1638 52.7427C19.8293 51.9506 19.3084 51.275 18.7868 50.5985C18.3436 50.0237 17.8998 49.4482 17.5695 48.8C16.0146 45.9587 16.1855 42.5666 16.598 39.4568C17.4664 34.4744 19.157 29.5518 22.0959 25.3945Z" fill="#FEFFFE"/>
<path d="M43.3195 30.589C43.9789 30.0897 45.0671 30.3014 45.3791 31.1073C45.6207 32.1005 45.2543 33.1073 44.831 33.9947C43.6288 36.4478 41.8351 38.5754 39.7835 40.361C39.2761 40.825 38.6845 41.1859 38.0576 41.4627C38.1418 39.2809 38.8907 37.1778 39.8188 35.2213C40.6818 33.4872 41.6804 31.7043 43.3195 30.589Z" fill="#3A73B8"/>
<path d="M64.5323 31.4411C65.1157 30.7681 66.1198 30.0951 67.0099 30.5537C67.9871 31.1317 67.4766 32.4262 67.0913 33.2186C65.7483 35.6961 63.7564 37.7857 61.5961 39.5686C61.5638 36.6297 62.6162 33.6717 64.5323 31.4411Z" fill="#3A73B8"/>
<path d="M43.8296 54.5996C40.8229 55.989 38.0142 57.818 35.4824 59.9483C33.5991 61.6389 31.7619 63.609 31.0781 66.1083C30.7497 67.4489 30.6737 69.1422 31.7999 70.1409C32.9885 71.2263 34.7795 70.9031 36.1526 70.3878C38.8012 69.3675 40.3995 66.803 41.4769 64.3119C42.7333 61.2183 43.5121 57.9239 43.8296 54.5996Z" fill="#3A73B8"/>
<path fill-rule="evenodd" clip-rule="evenodd" d="M40.6845 12.7571C48.1471 10.673 56.223 10.7625 63.6042 13.1451C63.8835 13.2327 64.107 13.4235 64.327 13.6113L64.4237 13.6933C63.7273 13.6421 63.0638 13.4402 62.3995 13.2381C61.9016 13.0866 61.4033 12.935 60.8905 12.8466C57.8729 12.2442 54.7465 11.9457 51.6884 12.4016C49.7726 12.7462 47.7617 13.4871 46.546 15.0881C45.6315 16.2767 45.5338 18.1437 46.5949 19.2726C47.7726 20.5182 49.8621 20.4504 51.1674 19.4436C51.4256 19.2541 51.6824 19.0585 51.9402 18.8621C53.2216 17.8863 54.526 16.8928 56.1277 16.5427C60.0382 15.5739 64.1388 16.3527 67.9268 17.4789C72.4749 18.719 76.7761 20.9632 80.2662 24.1464C86.0816 29.2834 89.5768 36.6592 90.9035 44.2222C92.0595 50.6753 91.7122 57.4188 89.7095 63.6711C89.6389 63.9642 89.452 64.1351 89.148 64.1813C90.3095 59.9238 91.1724 55.4052 90.3043 51.0091C89.8482 48.887 88.8034 46.4935 86.57 45.769C84.8604 45.1638 82.779 46.3388 82.6409 48.1977C82.3855 49.7568 83.3288 50.9741 84.2362 52.145C84.4865 52.4679 84.7341 52.7874 84.953 53.1095C87.1266 56.2302 86.858 60.2763 86.3264 63.8559C85.3275 68.7022 83.7101 73.5274 80.7739 77.5654C76.2423 84.0701 69.0239 88.3631 61.3955 90.1976C54.766 91.7823 47.7406 91.7715 41.1219 90.1406C40.9335 90.0842 40.7395 90.0346 40.5444 89.9847C39.8372 89.8039 39.1141 89.6189 38.5846 89.0958C39.3524 89.094 40.0859 89.2963 40.8208 89.4989C41.2937 89.6294 41.7673 89.76 42.2508 89.8364C45.6239 90.4497 49.149 90.8296 52.5194 89.9856C54.0469 89.565 55.594 88.838 56.5543 87.5297C57.4444 86.3086 57.4257 84.4389 56.3318 83.348C55.385 82.3493 53.8084 82.1434 52.5978 82.7727C51.9088 83.1458 51.2975 83.6343 50.6862 84.1229C50.0217 84.6539 49.3572 85.185 48.5927 85.568C45.6321 87.0063 42.1965 86.7946 39.0378 86.2627C33.8004 85.2342 28.6254 83.3347 24.403 79.9939C18.796 75.6845 14.9127 69.3997 13.0104 62.6318C10.9968 55.5463 10.9833 47.9318 12.8204 40.8084C12.9214 40.5737 12.9779 40.2959 13.0351 40.015C13.1577 39.4123 13.2833 38.7948 13.8571 38.556C12.7824 42.6265 11.9331 46.8924 12.5871 51.1095C12.9181 52.9819 13.5748 54.9656 15.1244 56.1811C16.199 57.0687 17.8787 57.3944 19.0673 56.542C20.3346 55.8014 20.7525 54.043 20.1637 52.7428C19.8291 51.9507 19.3081 51.2749 18.7864 50.5983C18.3433 50.0236 17.8997 49.4481 17.5694 48.8001C16.0144 45.9589 16.1854 42.5668 16.5979 39.457C17.4663 34.4746 19.1569 29.552 22.0958 25.3947C26.4594 19.0718 33.3277 14.7435 40.6845 12.7571ZM41.694 27.8858C39.2625 29.1965 37.5909 31.5384 36.367 33.9536C35.0672 36.4366 34.5299 39.21 34.2748 41.9725C33.0753 41.8124 32.1093 40.8816 31.8325 39.7148C31.3816 38.3381 31.6792 36.9333 31.9706 35.5571C32.0406 35.227 32.1101 34.8984 32.169 34.5723C32.2723 34.2002 32.0811 33.88 31.8966 33.571C31.8389 33.4744 31.7819 33.379 31.7348 33.2833C30.7144 33.2209 29.6724 33.723 29.2083 34.6592C27.8189 37.2562 27.941 40.7595 29.8623 43.0634C30.9644 44.4583 32.7036 45.1475 34.4322 45.3321C35.0156 47.1285 36.1553 48.8815 37.9871 49.5871C40.2286 50.4908 42.6899 49.5437 44.6383 48.366C44.6288 48.4637 44.6198 48.5617 44.6108 48.66C44.5535 49.2874 44.4956 49.9219 44.2774 50.5179C43.8067 50.897 43.2654 51.1682 42.7241 51.4393C42.479 51.5621 42.2337 51.685 41.9952 51.8177L41.7827 51.9297C38.0927 53.8742 34.3482 55.8474 31.249 58.6779C28.9478 60.8377 27.1378 63.7115 26.7904 66.8947C26.6222 69.397 27.6181 72.1429 29.8108 73.5187C32.1008 75.0357 35.1214 74.9516 37.618 74.0102C40.7659 72.8108 43.1132 70.1402 44.6654 67.226C46.9612 63.1009 47.3547 58.2896 47.6885 53.6739C47.7088 53.5547 47.7192 53.4245 47.7297 53.2915C47.7669 52.822 47.8069 52.3171 48.3018 52.1353C52.0521 50.0265 55.6965 47.731 59.1806 45.2045C59.5934 45.712 60.0004 46.2221 60.3885 46.7459C58.5947 47.8151 56.8062 48.9684 55.4523 50.5885C50.3886 56.1271 50.3045 65.6328 55.6124 71.0385C58.3261 73.9016 62.497 75.1255 66.3588 74.5529C69.9083 74.0482 73.1373 71.8146 74.9286 68.7212C77.3164 64.7807 76.9256 59.2695 73.8215 55.8313C70.9176 52.6237 65.265 52.6861 62.4267 55.9425C60.1934 58.2926 60.1201 62.4472 62.4512 64.7481C63.3955 65.6901 65.04 66.2597 66.2259 65.4483C66.9911 64.8977 66.9179 63.7199 66.3016 63.082L66.2651 63.0379C65.4756 62.0846 64.563 60.9828 64.7985 59.6573C65.037 57.907 66.9939 56.8351 68.6411 57.2071C70.0519 57.4269 71.1783 58.5284 71.7018 59.8201C72.9368 62.759 72.2367 66.4008 70.0196 68.6887C67.6696 71.1391 63.5825 71.5245 60.747 69.709C58.2284 68.1595 56.7956 65.2857 56.3533 62.4337C55.8895 58.9954 56.5489 55.2858 58.6816 52.4826C60.055 50.7076 61.9708 49.2506 64.1741 48.7239C64.487 48.7478 64.802 48.7771 65.118 48.8066C66.6707 48.9514 68.2501 49.0987 69.7561 48.6072C70.6085 48.3168 71.4383 47.3616 71.0044 46.4281C70.5352 45.4702 69.3819 45.1825 68.421 44.9817C67.1865 44.7367 65.9578 44.9853 64.7457 45.2306C64.5482 45.2706 64.3513 45.3104 64.1548 45.3481C63.1754 45.0116 62.6568 43.9831 62.2935 43.0767C65.018 41.0415 67.71 38.8298 69.5604 35.9343C70.6353 34.1949 71.3355 32.0592 70.8307 30.0158C70.4318 28.6617 69.3219 27.5111 67.9054 27.2533C65.5447 26.659 63.1293 27.8503 61.5255 29.5409C58.9475 32.3387 57.6395 36.2166 57.7589 39.9994C57.7451 40.3061 57.7834 40.6186 57.8217 40.9306C57.881 41.4137 57.9401 41.8955 57.8051 42.3522C56.3379 43.535 54.7394 44.5425 53.1436 45.5482C52.6379 45.867 52.1323 46.1856 51.6315 46.5095C51.2655 46.722 50.905 46.9444 50.5443 47.1667C49.7256 47.6716 48.9066 48.1765 48.025 48.5665C48.0467 47.3616 48.1091 46.1405 48.4537 44.979C48.7787 44.5345 49.1335 44.1105 49.4885 43.6862C50.1325 42.9166 50.7773 42.1461 51.2461 41.2504C51.778 40.2925 52.28 39.0795 51.7264 38.0211C51.219 37.2369 50.0955 37.3129 49.3601 37.7036C47.7916 38.4906 46.9314 40.1514 46.2991 41.709C46.1664 42.0135 46.0696 42.3402 45.9728 42.6673C45.7529 43.4103 45.5324 44.1553 44.888 44.6452C43.5963 45.7741 42.0386 46.9084 40.2421 46.8433C39.2164 46.8487 38.5325 45.8827 38.3154 44.9763C41.1539 43.8743 43.523 41.8173 45.4443 39.4947C47.2217 37.2098 48.6356 34.5124 48.8744 31.587C49.0073 30.1135 48.4809 28.4446 47.1349 27.6739C45.4524 26.7569 43.3439 27.0175 41.694 27.8858Z" fill="#3A73B8"/>
<path fill-rule="evenodd" clip-rule="evenodd" d="M73.8456 12.3827C66.1551 7.93501 57.1131 5.86448 48.2529 6.54018C39.4091 7.15347 30.785 10.4994 23.8271 15.9865C17.8245 20.7001 13.0294 26.947 10.0851 33.9945C6.91277 41.571 5.83816 50.0404 7.13801 58.1597C8.45957 67.275 12.7852 75.8909 19.1759 82.5098C25.2057 88.7703 33.0889 93.2343 41.5746 95.1257C49.6668 96.9382 58.2612 96.5121 66.1035 93.7985C74.9338 90.7971 82.7573 84.9302 88.1386 77.3131C93.4438 69.8855 96.3474 60.7974 96.4041 51.6768C96.4777 42.9496 93.9485 34.2088 89.1668 26.9063C85.3163 20.9335 79.9975 15.9295 73.8456 12.3827ZM33.0398 12.7572C37.7998 10.4804 42.9775 9.07204 48.2421 8.69484C56.3991 8.02999 64.7412 9.8373 71.9051 13.786C84.1218 20.3694 92.7787 33.2105 94.008 47.0692C94.9331 55.6092 93.11 64.4093 88.9551 71.9208C84.7978 79.4868 78.2931 85.7527 70.5509 89.5844C64.4753 92.6481 57.6368 94.1949 50.8309 94.0454C41.5094 93.9667 32.2802 90.6316 24.9831 84.8433C18.7037 79.8613 13.8462 73.1097 11.1868 65.541C7.04032 53.902 8.26147 40.4476 14.5868 29.8154C18.8337 22.445 25.3818 16.4478 33.0398 12.7572Z" fill="#3A73B8"/>
</svg>
