<svg width="104" height="103" viewBox="0 0 104 103" fill="none" xmlns="http://www.w3.org/2000/svg">
<path d="M96.684 52.3157C96.684 48.6236 96.3783 45.9294 95.7168 43.1355H52.6969V59.7995H77.9486C77.4397 63.9407 74.6905 70.1774 68.581 74.3681L68.4954 74.926L82.0975 85.2527L83.0398 85.3448C91.6946 77.5116 96.684 65.9862 96.684 52.3157Z" fill="#4285F4"/>
<path d="M52.6941 96.222C65.0652 96.222 75.4509 92.2303 83.0369 85.3453L68.5782 74.3684C64.709 77.0128 59.516 78.8588 52.6941 78.8588C40.5774 78.8588 30.2934 71.0258 26.6275 60.199L26.0902 60.2437L11.9466 70.9708L11.7616 71.4747C19.2963 86.1432 34.7733 96.222 52.6941 96.222Z" fill="#34A853"/>
<path d="M26.6302 60.1993C25.663 57.4053 25.1031 54.4116 25.1031 51.3183C25.1031 48.2248 25.663 45.2313 26.5793 42.4374L26.5537 41.8423L12.2328 30.943L11.7643 31.1614C8.65886 37.2484 6.87695 44.0839 6.87695 51.3183C6.87695 58.5528 8.65886 65.3879 11.7643 71.4749L26.6302 60.1993Z" fill="#FBBC05"/>
<path d="M52.6943 23.7774C61.2982 23.7774 67.1019 27.4196 70.4113 30.4632L83.3427 18.0897C75.4008 10.8553 65.0656 6.41479 52.6943 6.41479C34.7734 6.41479 19.2964 16.4931 11.7616 31.1615L26.5767 42.4374C30.2935 31.6107 40.5775 23.7774 52.6943 23.7774Z" fill="#EB4335"/>
</svg>
