<svg width="104" height="103" viewBox="0 0 104 103" fill="none" xmlns="http://www.w3.org/2000/svg">
<g clip-path="url(#clip0_273_4781)">
<path d="M0.9104 34.8538V37.8474H20.3282V34.8538H0.9104Z" fill="#1F70C1"/>
<path d="M0.9104 31.8602H20.3282V28.8666H0.9104V31.8602Z" fill="#1F70C1"/>
<path d="M23.1021 34.8538V37.8474H56.1976C56.0056 36.788 55.6743 35.7824 55.2252 34.8538H23.1021Z" fill="#1F70C1"/>
<path d="M53.1137 31.8602H23.1021V28.8666H46.0764C48.7966 28.8666 51.2709 30.0032 53.1137 31.8602Z" fill="#1F70C1"/>
<path d="M59.1637 34.8538V37.8474H78.1852L77.3926 34.8538H59.1637Z" fill="#1F70C1"/>
<path d="M76.6001 31.8602H59.1637V28.8666H75.8075L76.6001 31.8602Z" fill="#1F70C1"/>
<path d="M85.3183 34.8538L84.5257 37.8474H103.547V34.8538H85.3183Z" fill="#1F70C1"/>
<path d="M103.547 31.8602H86.1108L86.9034 28.8666H103.547V31.8602Z" fill="#1F70C1"/>
<path d="M97.9992 40.8409H83.7331L82.9406 43.8345H97.9992V40.8409Z" fill="#1F70C1"/>
<path d="M97.9992 46.8281H89.6773H82.148L81.3554 49.8216L80.5629 46.8281H73.0335H64.7116V49.8216H73.0335V46.8281L73.9582 49.8216H81.3554H88.7527L89.6773 46.8281V49.8216H97.9992V46.8281Z" fill="#1F70C1"/>
<path d="M97.9992 52.8152H89.6773V55.8088H97.9992V52.8152Z" fill="#1F70C1"/>
<path d="M97.9992 58.8024H89.6773V61.7959H97.9992V58.8024Z" fill="#1F70C1"/>
<path d="M103.547 64.7895H89.6773V67.7831H103.547V64.7895Z" fill="#1F70C1"/>
<path d="M103.547 70.7767H89.6773V73.7702H103.547V70.7767Z" fill="#1F70C1"/>
<path d="M0.9104 73.7702H20.3282V70.7767H0.9104V73.7702Z" fill="#1F70C1"/>
<path d="M0.9104 67.7831H20.3282V64.7895H0.9104V67.7831Z" fill="#1F70C1"/>
<path d="M6.45833 61.7959H14.7802V58.8024H6.45833V61.7959Z" fill="#1F70C1"/>
<path d="M6.45833 55.8088H14.7802V52.8152H6.45833V55.8088Z" fill="#1F70C1"/>
<path d="M6.45833 49.8216H14.7802V46.8281H6.45833V49.8216Z" fill="#1F70C1"/>
<path d="M6.45833 43.8345H14.7802V40.8409H6.45833V43.8345Z" fill="#1F70C1"/>
<path d="M28.6501 40.8409V43.8345H36.972V40.8409H28.6501Z" fill="#1F70C1"/>
<path d="M46.6809 40.8409V43.8345H55.7589C56.0813 42.8879 56.2876 41.8829 56.3604 40.8409H46.6809Z" fill="#1F70C1"/>
<path d="M64.7116 40.8409V43.8345H79.7703L78.9778 40.8409H64.7116Z" fill="#1F70C1"/>
<path d="M54.2184 46.8281H28.6501V49.8216H50.9249C52.2135 49.0806 53.3335 48.0556 54.2184 46.8281Z" fill="#1F70C1"/>
<path d="M50.9249 52.8152H28.6501V55.8088H54.2184C53.3335 54.5813 52.2135 53.5563 50.9249 52.8152Z" fill="#1F70C1"/>
<path d="M55.7589 58.8024H45.2939V61.7959H56.3604C56.2876 60.7539 56.0813 59.749 55.7589 58.8024Z" fill="#1F70C1"/>
<path d="M64.7116 61.7959V58.8024H73.0335V61.7959H64.7116Z" fill="#1F70C1"/>
<path d="M73.0335 64.7895H59.1637V67.7831H73.0335V64.7895Z" fill="#1F70C1"/>
<path d="M79.5061 67.7831L78.5815 64.7895H84.1294L83.2048 67.7831H79.5061Z" fill="#1F70C1"/>
<path d="M73.0335 70.7767H59.1637V73.7702H73.0335V70.7767Z" fill="#1F70C1"/>
<path d="M46.0764 73.7702C48.7966 73.7702 51.2709 72.6337 53.1137 70.7767H23.1021V73.7702H46.0764Z" fill="#1F70C1"/>
<path d="M23.1021 67.7831H55.2252C55.6743 66.8544 56.0056 65.8489 56.1976 64.7895H23.1021V67.7831Z" fill="#1F70C1"/>
<path d="M28.6501 61.7959H36.972V58.8024H28.6501V61.7959Z" fill="#1F70C1"/>
<path d="M80.4308 70.7767H82.2801L81.3554 73.7702L80.4308 70.7767Z" fill="#1F70C1"/>
<path d="M85.0541 61.7959H77.6568L76.7322 58.8024H85.9787L85.0541 61.7959Z" fill="#1F70C1"/>
<path d="M86.9034 55.8088L87.828 52.8152H74.8829L75.8075 55.8088H86.9034Z" fill="#1F70C1"/>
<path d="M73.0335 55.8088H64.7116V52.8152H73.0335V55.8088Z" fill="#1F70C1"/>
</g>
<defs>
<clipPath id="clip0_273_4781">
<rect width="102.637" height="102.637" fill="white" transform="translate(0.9104)"/>
</clipPath>
</defs>
</svg>
