<svg width="103" height="103" viewBox="0 0 103 103" fill="none" xmlns="http://www.w3.org/2000/svg">
<g clip-path="url(#clip0_273_4783)">
<rect x="0.27356" y="28.8666" width="8.11472" height="8.11472" fill="#0068B5"/>
<path d="M102.91 28.8666H94.7807V71.49H102.91V28.8666Z" fill="black"/>
<path d="M45.6641 31.0684H53.7937V42.3977H58.8748V48.9941H53.7937L53.7937 60.9187C53.7937 64.6398 56.9835 64.8371 58.7901 64.4707V71.6591C48.0195 71.6591 45.6646 68.3616 45.6641 59.1457V31.0684Z" fill="black"/>
<path d="M20.767 45.8523C22.5207 43.9044 25.6102 41.7212 29.9129 41.7212C37.1957 41.7212 41.5146 47.9794 41.5146 53.3073V71.4899H33.7237V54.8296C33.6672 52.6872 32.301 48.4023 27.2877 48.4023C23.8247 48.4023 21.8056 50.6889 20.767 52.8929V71.4898H12.6374V42.3977H20.767V45.8523Z" fill="black"/>
<path d="M0.27356 42.3977H8.4032V71.4898H0.27356V42.3977Z" fill="black"/>
<path fill-rule="evenodd" clip-rule="evenodd" d="M68.1247 59.6499H91.3934V56.9437C91.3933 48.5366 84.5687 41.7212 76.1503 41.7212C67.7317 41.7212 60.9072 48.5366 60.9072 56.9439C60.9072 65.3511 67.7317 72.1665 76.1503 72.1665C81.0902 72.1665 85.4818 69.8161 88.2617 66.188L82.8814 62.0766C81.3281 64.1038 78.8915 65.4009 76.1503 65.4009C72.4209 65.4009 69.2547 62.9935 68.1247 59.6499ZM84.1165 54.0683C82.9382 50.8132 79.8162 48.4868 76.1503 48.4868C72.4843 48.4868 69.3623 50.8132 68.184 54.0683H84.1165Z" fill="black"/>
</g>
<defs>
<clipPath id="clip0_273_4783">
<rect width="102.637" height="102.637" fill="white" transform="translate(0.27356)"/>
</clipPath>
</defs>
</svg>
