<svg width="104" height="103" viewBox="0 0 104 103" fill="none" xmlns="http://www.w3.org/2000/svg">
<path fill-rule="evenodd" clip-rule="evenodd" d="M42.8483 37.332C42.8007 37.332 42.7087 37.332 42.6611 37.332C41.8712 37.2357 41.2209 36.5118 41.2209 35.6917C41.1733 34.9195 40.7544 16.8733 50.9345 12.7721C53.4914 11.7587 55.8644 11.9516 57.863 13.4477C60.3248 15.2329 62.0917 18.8035 63.1608 24.0147C63.9031 27.6818 64.0428 30.8663 64.0428 31.0112C64.0904 31.783 63.4876 32.3623 62.6946 32.2174C61.9046 32.1208 61.2544 31.3973 61.2544 30.6251C61.1148 27.344 60.0456 18.3211 56.5148 15.7153C55.3981 14.8952 54.0022 14.7985 52.3304 15.4741C43.5905 18.9964 44.0093 35.9329 44.0093 36.1258C44.0093 36.8013 43.5462 37.332 42.8483 37.332Z" fill="#595961"/>
<path opacity="0.46" fill-rule="evenodd" clip-rule="evenodd" d="M57.349 13.5439C55.49 12.1928 53.3073 11.9999 50.9343 12.9166C46.7976 14.6053 43.8696 19.0446 42.4293 25.7999C41.3603 30.7696 41.4997 35.2572 41.4997 35.4501C41.4997 35.6913 41.5918 35.9328 41.779 36.1257C41.963 36.3186 42.1501 36.4635 42.3817 36.4635C42.4293 36.4635 42.4769 36.4635 42.5213 36.4635C42.9401 36.4635 43.2668 36.1257 43.2668 35.6913C43.2668 35.4984 42.8482 18.2724 51.8196 14.6536C53.631 13.93 55.2108 14.0263 56.5146 14.9914C60.2771 17.7418 61.3936 27.0545 61.5332 30.3838C61.5332 30.8662 61.9521 31.3489 62.4628 31.3969C62.9292 31.4452 63.3002 31.1074 63.3002 30.625C63.2527 30.046 62.742 17.5006 57.349 13.5439Z" fill="#B2B2C2"/>
<path opacity="0.46" fill-rule="evenodd" clip-rule="evenodd" d="M42.4292 35.8845C42.3816 35.8845 42.3816 35.8845 42.3372 35.8845C42.058 35.8362 41.8232 35.5467 41.7788 35.2572C41.7788 35.064 41.6393 30.6733 42.7084 25.7033C44.1011 19.0929 47.0322 14.7019 51.0738 13.0612C53.3516 12.1444 55.3979 12.3376 57.1649 13.5922C62.3707 17.4039 62.8815 29.7565 62.8815 30.2872C62.8815 30.5767 62.6499 30.7696 62.3707 30.7216C62.0915 30.6733 61.8599 30.4321 61.8123 30.0943C61.8123 29.9494 61.3016 17.8383 56.6065 14.3641C55.2106 13.351 53.4912 13.2061 51.5402 13.978C42.4292 17.79 42.848 35.2572 42.848 35.4501C42.8924 35.6913 42.7084 35.8845 42.4292 35.8845Z" fill="#B2B2C2"/>
<path opacity="0.62" fill-rule="evenodd" clip-rule="evenodd" d="M46.1951 22.0848C46.5663 21.3612 46.9374 20.6373 47.2641 19.8654C47.1245 20.1066 46.195 22.6158 43.3589 22.2297C43.3113 22.2297 45.0308 22.7604 46.1951 22.0848Z" fill="#595961"/>
<path opacity="0.62" fill-rule="evenodd" clip-rule="evenodd" d="M45.1702 25.1724C45.4494 24.4002 45.7285 23.58 45.9156 22.8081C45.8236 23.0976 45.3573 25.703 42.3816 25.703C42.3816 25.703 44.1011 26.0408 45.1702 25.1724Z" fill="#595961"/>
<path opacity="0.62" fill-rule="evenodd" clip-rule="evenodd" d="M61.4859 18.9485C61.1148 18.0797 60.6959 17.2595 60.2771 16.391C60.4167 16.6805 61.8126 19.4308 60.2328 21.409C60.2328 21.409 61.4415 20.4442 61.4859 18.9485Z" fill="#595961"/>
<path opacity="0.62" fill-rule="evenodd" clip-rule="evenodd" d="M58.9322 14.6057C58.1867 13.9785 57.4442 13.3995 56.6987 12.8688C56.9779 13.11 59.4428 14.8952 59.3032 17.5976C59.2556 17.5976 59.6745 16.0052 58.9322 14.6057Z" fill="#595961"/>
<path opacity="0.62" fill-rule="evenodd" clip-rule="evenodd" d="M47.5429 19.4302C48.1012 18.8512 48.5643 18.2239 49.075 17.5483C48.891 17.7412 47.3558 19.7197 44.6149 18.9958C44.6149 18.9958 46.1946 19.8646 47.5429 19.4302Z" fill="#595961"/>
<path opacity="0.62" fill-rule="evenodd" clip-rule="evenodd" d="M49.2622 17.211C49.9126 16.7286 50.5153 16.2459 51.1212 15.7152C50.8897 15.8601 48.9832 17.4521 46.3342 16.2942C46.3342 16.2942 47.8664 17.4038 49.2622 17.211Z" fill="#595961"/>
<path opacity="0.62" fill-rule="evenodd" clip-rule="evenodd" d="M51.7718 15.618C52.5617 15.3768 53.3073 15.0873 54.0496 14.7978C53.7705 14.8941 51.4005 15.7626 49.0752 13.929C49.1228 13.929 50.3316 15.3768 51.7718 15.618Z" fill="#595961"/>
<path opacity="0.62" fill-rule="evenodd" clip-rule="evenodd" d="M54.0497 14.7504C54.7 14.847 55.3503 14.8953 56.0006 14.9436C55.769 14.8953 53.7227 14.7504 52.5616 12.8203C52.5616 12.8203 53.0282 14.1231 54.0497 14.7504Z" fill="#595961"/>
<path opacity="0.62" fill-rule="evenodd" clip-rule="evenodd" d="M56.7463 15.8109C57.2095 16.3419 57.7233 16.8726 58.2785 17.355C58.0945 17.1621 56.5147 15.5697 56.8859 13.5916C56.8383 13.5916 56.3275 14.7012 56.7463 15.8109Z" fill="#595961"/>
<path opacity="0.74" fill-rule="evenodd" clip-rule="evenodd" d="M62.3707 30.046C62.3707 29.515 61.86 17.3074 56.7937 13.5922C55.8166 12.8683 54.7475 12.5305 53.6308 12.5305C52.7933 12.5305 51.9113 12.7234 50.9818 13.1095C46.9371 14.7019 44.1011 18.9963 42.7084 25.5584C41.6393 30.4801 41.7788 34.8711 41.7788 35.064C41.7788 35.2089 41.9184 35.3535 42.058 35.3535H42.1023C42.2419 35.3535 42.3372 35.2572 42.3372 35.1123C42.3372 34.9194 41.8708 17.3074 51.2134 13.5439C53.2596 12.7234 55.0266 12.8683 56.5145 13.978C61.346 17.5006 61.8599 29.8048 61.8599 29.9494C61.8599 30.0943 61.9995 30.2389 62.1391 30.2389C62.1391 30.2389 62.139 30.2389 62.1835 30.2389C62.2786 30.2872 62.3707 30.1906 62.3707 30.046Z" fill="url(#paint0_linear_273_4784)"/>
<path fill-rule="evenodd" clip-rule="evenodd" d="M63.1609 24.015C62.0918 18.8038 60.3248 15.2812 57.8631 13.4477C56.5148 12.4829 55.0714 12.0485 53.4916 12.1451C54.7478 12.2414 55.9089 12.6758 56.978 13.4477C59.4429 15.2333 61.21 18.8038 62.2791 24.015C63.0214 27.6821 63.1609 30.8666 63.1609 31.0115C63.1609 31.5905 62.8817 32.0248 62.4154 32.1694C62.5106 32.2177 62.6027 32.2177 62.6503 32.2177C63.4402 32.3143 64.0429 31.7833 63.9985 31.0115C64.0429 30.8666 63.9032 27.7304 63.1609 24.015Z" fill="url(#paint1_linear_273_4784)"/>
<path fill-rule="evenodd" clip-rule="evenodd" d="M51.4483 15.4742C42.7084 18.9965 43.1271 35.933 43.1271 36.1258C43.1271 36.7048 42.8479 37.1392 42.3816 37.2838C42.4768 37.3321 42.5213 37.3321 42.6165 37.3321C42.6609 37.3321 42.756 37.3321 42.8004 37.3321C43.4983 37.3321 43.9614 36.8014 43.9614 36.1258C43.9614 35.933 43.546 19.0448 52.2826 15.5225C52.8886 15.2813 53.4467 15.1364 53.9575 15.0881C53.212 14.9435 52.3778 15.0881 51.4483 15.4742Z" fill="url(#paint2_linear_273_4784)"/>
<path fill-rule="evenodd" clip-rule="evenodd" d="M64.6931 19.6715L25.2765 32.3133C25.2765 32.3133 23.6047 32.796 23.186 33.3267C22.7672 33.8574 22.6752 35.3532 22.6752 35.3532L16.5841 84.0876L62.3233 92.9659L65.8574 19.6232C65.3466 19.5266 64.8327 19.6232 64.6931 19.6715Z" fill="url(#paint3_linear_273_4784)"/>
<path fill-rule="evenodd" clip-rule="evenodd" d="M78.3153 25.9443C78.3153 25.9443 78.2677 25.5582 78.0361 25.4136C77.8489 25.2687 77.6173 25.2687 77.6173 25.2687L71.1552 24.7863L66.4157 19.9129C66.2285 19.768 66.0414 19.6717 65.8098 19.6234L62.2791 92.9661L87.0519 87.4171L78.3153 25.9443Z" fill="url(#paint4_linear_273_4784)"/>
<path fill-rule="evenodd" clip-rule="evenodd" d="M48.4251 60.3958C47.7272 59.4308 46.8929 58.5623 46.0553 57.7901C45.2178 57.0182 44.336 56.3909 43.4509 55.8119C42.8481 55.4258 42.2898 55.0397 41.8235 54.6537C41.3603 54.2679 40.9891 53.8818 40.7099 53.544C40.4308 53.1579 40.1991 52.8201 40.0595 52.4343C39.92 52.0482 39.8723 51.6621 39.8723 51.276C39.8723 50.7453 40.012 50.2146 40.1991 49.7802C40.3831 49.3462 40.7099 48.96 41.0335 48.6223C41.4078 48.2845 41.8234 48.0433 42.3373 47.8504C42.8481 47.6572 43.4508 47.5609 44.1011 47.5126C44.799 47.4643 45.497 47.5126 46.1473 47.5609C46.7977 47.6089 47.4036 47.7538 48.0063 47.8984C48.5647 48.0433 49.1229 48.2362 49.5861 48.4294C50.0524 48.6223 50.5156 48.8152 50.8424 49.0084L53.9102 39.551C53.447 39.3098 52.8887 39.0683 52.2827 38.9237C51.6324 38.7305 50.9344 38.5859 50.1445 38.4893C49.3546 38.3931 48.5171 38.3448 47.6351 38.3448C46.7532 38.3448 45.8238 38.3931 44.8467 38.5376C42.7562 38.8271 40.8939 39.4061 39.2221 40.2746C37.6423 41.0951 36.2464 42.1565 35.0853 43.4594C33.9686 44.7139 33.0866 46.1614 32.4363 47.8021C31.8304 49.3944 31.4593 51.1797 31.3673 53.1096C31.3197 54.2679 31.4117 55.3292 31.6908 56.2943C31.9224 57.2594 32.2967 58.1762 32.8075 59.0447C33.2706 59.9132 33.8765 60.6853 34.5269 61.4089C35.1772 62.1328 35.9671 62.8084 36.7571 63.4357C37.4074 63.9181 37.9658 64.4005 38.4321 64.8349C38.8953 65.2693 39.2697 65.7033 39.5457 66.186C39.8248 66.6201 40.0119 67.0545 40.1515 67.5369C40.2911 67.9713 40.3387 68.4537 40.2911 68.9364C40.2911 69.4188 40.1516 69.9012 39.9645 70.2873C39.7805 70.6734 39.5456 71.0595 39.1745 71.3489C38.8509 71.6384 38.4322 71.8313 37.9659 71.9279C37.5027 72.0242 36.9444 72.0725 36.3384 71.9762C35.6437 71.8796 34.9456 71.6867 34.2953 71.3969C33.645 71.1557 32.9916 70.8179 32.3889 70.4802C31.7861 70.1427 31.2278 69.7566 30.7614 69.4188C30.2507 69.081 29.8319 68.6949 29.5083 68.4054L27.4144 75.5951C27.7412 76.0775 28.2045 76.5119 28.7152 76.9459C29.2291 77.3803 29.8319 77.8144 30.5299 78.2488C31.2278 78.6349 31.9701 79.0207 32.76 79.3585C33.55 79.6963 34.435 79.9858 35.3169 80.2273H35.3645H35.4088H35.4565H35.5041C37.4075 80.6614 39.2221 80.758 40.9415 80.5168C42.7085 80.2753 44.3358 79.648 45.7285 78.6832C47.1688 77.6698 48.333 76.3186 49.2149 74.5334C50.1 72.7481 50.6108 70.5768 50.7027 68.1159C50.7503 66.5718 50.5633 65.221 50.1445 63.9664C49.7258 62.5189 49.1231 61.4089 48.4251 60.3958Z" fill="url(#paint5_linear_273_4784)"/>
<path opacity="0.226763" fill-rule="evenodd" clip-rule="evenodd" d="M27.7158 75.9881C27.6079 75.8603 27.5063 75.7296 27.4143 75.5954L29.5082 68.4057C29.5367 68.4326 29.5684 68.4603 29.6002 68.4888C29.9111 68.7666 30.2982 69.1126 30.7613 69.4191C31.2277 69.7569 31.786 70.143 32.3888 70.4808C32.9915 70.8183 33.6449 71.1561 34.2952 71.3976C34.9455 71.6871 35.6436 71.88 36.3383 71.9766C36.9443 72.0729 37.5026 72.0249 37.9658 71.9283C38.4321 71.8317 38.8508 71.6388 39.1744 71.3493C39.5455 71.0598 39.7804 70.6737 39.9644 70.2876C40.1515 69.9015 40.291 69.4191 40.291 68.9367C40.3386 68.454 40.291 67.9717 40.1514 67.5373C40.0118 67.0549 39.8247 66.6205 39.5456 66.1864C39.2822 65.7277 38.9332 65.3129 38.4986 64.8999C38.727 65.1578 38.9206 65.4227 39.0824 65.7037C39.3616 66.1381 39.5456 66.5722 39.6852 67.0549C39.8247 67.4889 39.8723 67.9717 39.8248 68.454C39.8248 68.9367 39.6852 69.4191 39.5012 69.8052C39.314 70.1913 39.0824 70.5771 38.7112 70.8666C38.3845 71.1561 37.9658 71.3493 37.5026 71.4456C37.0363 71.5422 36.4779 71.5905 35.8752 71.4939C35.1773 71.3976 34.4793 71.2044 33.8289 70.9149C33.1786 70.6737 32.5282 70.3359 31.9223 69.9981C31.3196 69.6603 30.7613 69.2745 30.2982 68.9367C29.8318 68.6302 29.4448 68.2842 29.1339 68.0064C29.1022 67.978 29.0735 67.9502 29.0417 67.9233L26.9512 75.1127C27.1574 75.4199 27.4208 75.7075 27.7158 75.9881ZM34.5649 61.4531C34.3904 61.2805 34.2223 61.1053 34.0605 60.9269C33.4102 60.203 32.8075 59.4311 32.3411 58.5626C31.8304 57.6938 31.4592 56.777 31.2276 55.8123C30.9484 54.8472 30.8532 53.7855 30.9007 52.6275C30.9927 50.6974 31.3672 48.9121 31.9699 47.3197C32.6203 45.6794 33.5054 44.2319 34.6189 42.9773C35.7832 41.6744 37.1757 40.6127 38.7556 39.7926C40.4306 38.9241 42.2896 38.3451 44.3802 38.0556C45.3573 37.9107 46.2869 37.8624 47.1688 37.8624C48.0539 37.8624 48.8914 37.9107 49.6813 38.0073C50.4712 38.1039 51.1691 38.2485 51.8195 38.4417C52.4222 38.5863 52.9806 38.8275 53.4469 39.0687L53.3739 39.2944C53.0376 39.1482 52.6697 39.0166 52.2826 38.9241C51.6323 38.7312 50.9343 38.5863 50.1444 38.4897C49.3545 38.3934 48.517 38.3451 47.635 38.3451C46.7531 38.3451 45.8237 38.3934 44.8466 38.538C42.756 38.8275 40.8938 39.4065 39.222 40.2753C37.6422 41.0955 36.2463 42.1568 35.0852 43.4597C33.9685 44.7143 33.0865 46.1617 32.4362 47.8024C31.8303 49.3948 31.4592 51.1801 31.3672 53.1099C31.3196 54.2682 31.4116 55.3296 31.6907 56.2947C31.9223 57.2598 32.2966 58.1765 32.8074 59.045C33.2705 59.9135 33.8764 60.6857 34.5268 61.4093C34.5395 61.4238 34.5522 61.4386 34.5649 61.4531ZM40.8779 53.7419C41.1317 54.0289 41.449 54.3415 41.8234 54.654C42.2897 55.0401 42.848 55.4262 43.4508 55.8123C44.3359 56.3913 45.2177 57.0186 46.0552 57.7904C46.2995 58.0152 46.5406 58.2479 46.7817 58.4891C46.3947 58.073 45.9917 57.6793 45.5888 57.308C44.7545 56.5359 43.8695 55.9086 42.9876 55.3296C42.3817 54.9435 41.8234 54.5577 41.3602 54.1716C41.1857 54.0276 41.027 53.8837 40.8779 53.7419Z" fill="black"/>
<path opacity="0.41" fill-rule="evenodd" clip-rule="evenodd" d="M72.7348 79.3112L71.155 24.7866L70.8758 24.4971L71.6214 78.539C71.6214 78.539 65.0672 88.8648 64.0901 88.5753C62.6499 88.1412 66.9262 20.4438 66.9262 20.4438L66.4599 19.9615C66.2759 19.8166 66.0412 19.7203 65.8572 19.672L62.3708 92.0012L62.3231 93.0146L63.5317 91.4222L72.7348 79.3112Z" fill="url(#paint6_linear_273_4784)"/>
<path fill-rule="evenodd" clip-rule="evenodd" d="M54.9315 22.8085C54.3763 25.0761 53.6785 27.1992 53.1677 28.5021C52.841 29.2743 53.2122 29.9979 53.9101 30.0945C54.6556 30.1911 55.4899 29.6601 55.7691 28.8882C55.8167 28.7433 57.0697 25.6071 57.8628 21.8917V21.8434L54.9315 22.8085Z" fill="url(#paint7_linear_273_4784)"/>
<path fill-rule="evenodd" clip-rule="evenodd" d="M33.9687 29.5632C33.3184 31.0107 32.668 32.2653 32.2017 33.1337C31.7861 33.8576 32.0177 34.6295 32.7156 34.8224C33.4103 35.0639 34.3398 34.6295 34.7585 33.9056C34.8061 33.8093 36.1545 31.4451 37.3632 28.4532L33.9687 29.5632Z" fill="url(#paint8_linear_273_4784)"/>
<path opacity="0.32" fill-rule="evenodd" clip-rule="evenodd" d="M62.3231 92.9658L72.7348 79.3104L87.1469 87.4168L62.3231 92.9658Z" fill="url(#paint9_linear_273_4784)"/>
<path opacity="0.19" fill-rule="evenodd" clip-rule="evenodd" d="M62.3231 92.9658L72.6428 79.3104L87.1469 87.4168L62.3231 92.9658Z" fill="url(#paint10_linear_273_4784)"/>
<path opacity="0.19" fill-rule="evenodd" clip-rule="evenodd" d="M62.3231 92.9658L72.6428 79.3104L87.1469 87.4168L62.3231 92.9658Z" fill="url(#paint11_linear_273_4784)"/>
<path opacity="0.6" fill-rule="evenodd" clip-rule="evenodd" d="M52.1907 54.7509C57.5837 62.3264 61.2095 70.5291 63.0209 78.4907L65.8572 19.5754C65.3464 19.4791 64.8325 19.5754 64.6929 19.6237L25.2763 32.3141C25.2763 32.3141 24.9051 32.4103 24.4387 32.6035C34.4348 36.1741 44.4279 43.8461 52.1907 54.7509Z" fill="url(#paint12_linear_273_4784)"/>
<path fill-rule="evenodd" clip-rule="evenodd" d="M78.08 25.4619C78.3148 25.6551 78.3149 25.9446 78.3149 25.9446L86.9595 87.3688L72.7346 79.2626L71.1548 24.7383L77.5249 25.2207C77.5693 25.269 77.8484 25.269 78.08 25.4619Z" fill="url(#paint13_linear_273_4784)"/>
<path fill-rule="evenodd" clip-rule="evenodd" d="M77.059 25.6073C77.059 25.6073 77.3382 25.6073 77.5697 25.8485C77.8013 26.0417 77.8488 26.3312 77.8488 26.3312L86.3571 87.0801L87.0075 87.4662L78.3595 25.9934C78.3595 25.9934 78.3151 25.7039 78.128 25.511C77.8964 25.3178 77.5697 25.3178 77.5697 25.3178L71.2028 24.8354L77.059 25.6073Z" fill="url(#paint14_linear_273_4784)"/>
<path fill-rule="evenodd" clip-rule="evenodd" d="M16.5841 84.0869L62.3233 92.9653L64.5566 42.6868L22.2721 43.8887L16.5841 84.0869Z" fill="url(#paint15_linear_273_4784)"/>
<path opacity="0.3" fill-rule="evenodd" clip-rule="evenodd" d="M31.5988 33.0164C31.1832 34.1893 31.5923 35.4214 32.5187 35.7693C33.4418 36.1169 34.5268 35.4483 34.9456 34.2758C35.3612 33.1033 34.9488 31.8708 34.0257 31.5232C33.1025 31.1753 32.0143 31.8439 31.5988 33.0164Z" fill="white"/>
<path opacity="0.89" fill-rule="evenodd" clip-rule="evenodd" d="M31.5483 32.46C31.1328 33.6325 31.5451 34.865 32.4683 35.2126C33.3914 35.5605 34.4796 34.8918 34.8952 33.7193C35.3107 32.5465 34.9016 31.314 33.9752 30.9664C33.0521 30.6185 31.9671 31.2872 31.5483 32.46Z" fill="black"/>
<path fill-rule="evenodd" clip-rule="evenodd" d="M71.2026 24.7863L66.4599 19.9129C66.2759 19.768 66.0412 19.6717 65.8572 19.6234L62.3231 92.9661L72.7824 79.2623L71.2026 24.7863Z" fill="url(#paint16_linear_273_4784)"/>
<path fill-rule="evenodd" clip-rule="evenodd" d="M64.6932 19.6726L25.2766 32.3144C25.2766 32.3144 23.6048 32.7971 23.186 33.3278C23.1385 33.3761 23.1383 33.4243 23.0939 33.4727L62.8342 22.0852C63.1609 21.9885 63.9508 21.6991 63.8588 24.0633L61.4414 92.8704L62.279 93.0153L65.8098 19.6726C65.3466 19.5277 64.8328 19.6243 64.6932 19.6726Z" fill="url(#paint17_linear_273_4784)"/>
<path fill-rule="evenodd" clip-rule="evenodd" d="M64.6932 19.6726L25.2766 32.3144C25.2766 32.3144 23.6048 32.7971 23.186 33.3278C23.1385 33.3761 23.1383 33.4243 23.0939 33.4727L32.2969 30.8186L63.9508 20.6377C64.0904 20.5894 64.6012 20.4928 65.112 20.5894L61.6256 92.8704L62.279 93.0153L65.8098 19.6726C65.3466 19.5277 64.8328 19.6243 64.6932 19.6726Z" fill="url(#paint18_linear_273_4784)"/>
<path opacity="0.32" fill-rule="evenodd" clip-rule="evenodd" d="M74.8289 80.4688L72.735 79.2626L62.2791 92.966L62.8342 92.8211C62.8342 92.8211 72.0403 80.5172 72.8746 80.1311C73.4806 79.8899 74.8289 80.4688 74.8289 80.4688Z" fill="url(#paint19_linear_273_4784)"/>
<path opacity="0.57" fill-rule="evenodd" clip-rule="evenodd" d="M62.3231 92.966L72.7824 79.2626C72.7348 79.3109 66.1363 86.7897 62.3231 92.966Z" fill="url(#paint20_linear_273_4784)"/>
<path opacity="0.46" fill-rule="evenodd" clip-rule="evenodd" d="M87.1467 87.4168L72.7822 79.3104C72.7346 79.3104 74.4097 79.5999 87.1467 87.4168Z" fill="url(#paint21_linear_273_4784)"/>
<path opacity="0.3" fill-rule="evenodd" clip-rule="evenodd" d="M52.8505 28.2052C52.4318 29.378 52.8442 30.6105 53.7674 30.9584C54.6937 31.3063 55.7787 30.6377 56.1943 29.4652C56.613 28.2924 56.2006 27.0599 55.2774 26.712C54.3543 26.3644 53.2661 27.0327 52.8505 28.2052Z" fill="white"/>
<path opacity="0.89" fill-rule="evenodd" clip-rule="evenodd" d="M52.7999 27.6509C52.3843 28.8237 52.7968 30.0562 53.72 30.4041C54.6432 30.7517 55.7311 30.0833 56.1467 28.9105C56.5623 27.738 56.1531 26.5056 55.2299 26.1577C54.3036 25.8098 53.2186 26.4784 52.7999 27.6509Z" fill="black"/>
<path fill-rule="evenodd" clip-rule="evenodd" d="M33.2264 34.8231C33.1788 34.8231 33.0867 34.8231 33.0391 34.8231C32.2968 34.7268 31.7861 34.0029 31.8781 33.1827C31.9701 32.4105 34.619 14.3644 45.497 10.2631C48.2379 9.24976 50.5632 9.44266 52.3302 10.9387C54.4684 12.724 55.6295 16.2945 55.8167 21.5057C55.9562 25.1729 55.5376 28.3573 55.5376 28.5022C55.4456 29.2741 54.7477 29.8534 54.0022 29.7085C53.2599 29.6119 52.7014 28.8883 52.841 28.1161C53.2598 24.8351 53.7229 15.8122 50.6108 13.2064C49.6337 12.3862 48.2856 12.2896 46.4742 12.9652C37.1316 16.4874 34.6665 33.4239 34.6665 33.5685C34.4794 34.2924 33.9243 34.8231 33.2264 34.8231Z" fill="#595961"/>
<path opacity="0.46" fill-rule="evenodd" clip-rule="evenodd" d="M51.7719 11.0347C50.1445 9.68386 48.0064 9.49097 45.4494 10.4078C41.0335 12.0964 37.3153 16.5354 34.7584 23.2424C32.855 28.2124 32.2016 32.6997 32.2016 32.8929C32.1572 33.1341 32.2492 33.3753 32.3888 33.5685C32.5284 33.7614 32.7154 33.9063 32.947 33.9063C32.9914 33.9063 33.039 33.9063 33.0866 33.9063C33.5054 33.9063 33.8765 33.5685 33.9241 33.1341C33.9685 32.9412 36.4335 15.7152 46.0553 12.0964C48.0063 11.3725 49.586 11.4691 50.7027 12.4342C54.0019 15.1846 53.5389 24.497 53.1201 27.8263C53.0725 28.309 53.3993 28.7914 53.8625 28.8397C54.3288 28.888 54.7919 28.5502 54.8395 28.0678C54.8871 27.5368 56.5146 14.9917 51.7719 11.0347Z" fill="#B2B2C2"/>
<path opacity="0.81" fill-rule="evenodd" clip-rule="evenodd" d="M33.0393 33.3755C32.9917 33.3755 32.9917 33.3755 32.9473 33.3755C32.6682 33.3272 32.4809 33.0377 32.5285 32.7482C32.5761 32.555 33.1789 28.1643 35.0855 23.1943C37.6425 16.5839 41.2684 12.1929 45.5891 10.5522C48.0541 9.63546 50.0527 9.82867 51.5849 11.0832C56.1405 14.895 54.5606 27.2475 54.4686 27.7782C54.421 28.0677 54.1895 28.2606 53.8628 28.2126C53.5868 28.1643 53.3996 27.9231 53.3996 27.5853C53.3996 27.4404 54.9794 15.3294 50.8902 11.8551C49.6815 10.9383 48.0066 10.842 45.9636 11.6139C36.1547 15.3294 33.5977 32.7482 33.5977 32.9411C33.5501 33.1823 33.3185 33.3755 33.0393 33.3755Z" fill="#B2B2C2"/>
<path opacity="0.42" fill-rule="evenodd" clip-rule="evenodd" d="M39.1744 19.575C39.6852 18.8515 40.1515 18.1276 40.6146 17.3557C40.4306 17.5969 39.0824 20.106 36.2939 19.7199C36.2463 19.7199 37.8738 20.2506 39.1744 19.575Z" fill="#595961"/>
<path opacity="0.42" fill-rule="evenodd" clip-rule="evenodd" d="M37.5949 22.6627C38.0136 21.8905 38.4323 21.0703 38.7559 20.2984C38.6163 20.5879 37.6868 23.1933 34.7587 23.1933C34.7587 23.1933 36.3862 23.5311 37.5949 22.6627Z" fill="#595961"/>
<path opacity="0.42" fill-rule="evenodd" clip-rule="evenodd" d="M36.3861 25.8485C36.7572 25.028 37.0365 24.2078 37.3157 23.3876C37.1761 23.6771 36.6653 26.3308 33.5977 26.6686C33.5977 26.6203 35.2694 26.8135 36.3861 25.8485Z" fill="#595961"/>
<path opacity="0.62" fill-rule="evenodd" clip-rule="evenodd" d="M54.9789 16.4387C54.7473 15.5699 54.5157 14.7497 54.1889 13.8813C54.2809 14.1707 55.2105 16.9211 53.3071 18.8993C53.3071 18.8993 54.6997 17.9345 54.9789 16.4387Z" fill="#595961"/>
<path opacity="0.62" fill-rule="evenodd" clip-rule="evenodd" d="M53.1679 12.0961C52.5176 11.4688 51.864 10.8898 51.2136 10.3591C51.4484 10.6003 53.631 12.3856 53.0283 15.0876C52.9807 15.0876 53.6786 13.4952 53.1679 12.0961Z" fill="#595961"/>
<path opacity="0.62" fill-rule="evenodd" clip-rule="evenodd" d="M55.4455 20.8781C55.3979 20.0097 55.2584 19.0929 55.1188 18.2241C55.1188 18.5619 55.5851 21.4088 53.3518 22.9529C53.3518 22.9529 54.8871 22.2773 55.4455 20.8781Z" fill="#595961"/>
<path opacity="0.62" fill-rule="evenodd" clip-rule="evenodd" d="M55.6773 25.4141C55.7248 24.5456 55.7248 23.6288 55.6773 22.7603C55.6773 23.0981 55.7247 25.9451 53.3518 27.2477C53.3518 27.1997 54.9793 26.717 55.6773 25.4141Z" fill="#595961"/>
<path opacity="0.42" fill-rule="evenodd" clip-rule="evenodd" d="M35.3165 29.3701C35.5957 28.5017 35.7829 27.6332 35.9669 26.8127C35.8749 27.1022 35.4562 29.8525 32.6201 30.5281C32.6677 30.5281 34.3395 30.4798 35.3165 29.3701Z" fill="#595961"/>
<path opacity="0.42" fill-rule="evenodd" clip-rule="evenodd" d="M40.9415 16.9205C41.5918 16.3415 42.1976 15.7142 42.7559 15.0386C42.5212 15.2315 40.6623 17.21 38.0609 16.4861C38.1053 16.4861 39.5456 17.3549 40.9415 16.9205Z" fill="#595961"/>
<path opacity="0.42" fill-rule="evenodd" clip-rule="evenodd" d="M43.0317 14.7021C43.7772 14.2197 44.4752 13.737 45.1699 13.2063C44.8939 13.3512 42.7557 14.9433 40.2908 13.7853C40.2908 13.7853 41.5915 14.895 43.0317 14.7021Z" fill="#595961"/>
<path opacity="0.62" fill-rule="evenodd" clip-rule="evenodd" d="M45.868 13.1099C46.7055 12.8684 47.4955 12.5789 48.2854 12.2894C48.0063 12.386 45.497 13.2545 43.4508 11.4209C43.4508 11.4209 44.4278 12.8684 45.868 13.1099Z" fill="#595961"/>
<path opacity="0.62" fill-rule="evenodd" clip-rule="evenodd" d="M48.238 12.2415C48.8915 12.3381 49.5419 12.3864 50.1922 12.4347C49.9606 12.3864 47.9619 12.2415 47.0768 10.3113C47.1244 10.3113 47.356 11.6142 48.238 12.2415Z" fill="#595961"/>
<path opacity="0.62" fill-rule="evenodd" clip-rule="evenodd" d="M50.7504 13.3023C51.1691 13.833 51.5847 14.3636 52.0035 14.8463C51.8639 14.6531 50.5632 13.0611 51.2135 11.0826C51.2611 11.0826 50.5632 12.1926 50.7504 13.3023Z" fill="#595961"/>
<path fill-rule="evenodd" clip-rule="evenodd" d="M53.9574 27.5368C54.0018 27.0061 55.5849 14.7984 51.169 11.083C50.3315 10.3594 49.31 10.0216 48.1934 10.0216C47.3559 10.0216 46.4264 10.2145 45.4493 10.6006C41.1729 12.193 37.5944 16.4874 35.0851 23.0495C33.1785 27.9712 32.5757 32.3622 32.5281 32.5551C32.5281 32.6997 32.6203 32.8446 32.7598 32.8446H32.8073C32.9469 32.8446 33.0389 32.748 33.0389 32.6034C33.0864 32.4102 35.5958 14.7984 45.5887 11.0347C47.7269 10.2145 49.5415 10.3594 50.8422 11.4691C55.0709 14.9913 53.4912 27.2956 53.4468 27.4405C53.4468 27.5851 53.5388 27.73 53.6784 27.73C53.6784 27.73 53.6783 27.73 53.7227 27.73C53.8623 27.7783 53.9574 27.6817 53.9574 27.5368Z" fill="url(#paint22_linear_273_4784)"/>
<path fill-rule="evenodd" clip-rule="evenodd" d="M55.8166 21.5053C55.6295 16.2941 54.4684 12.7716 52.3302 10.938C51.1691 9.97323 49.7734 9.53883 48.1936 9.63543C49.4023 9.73172 50.5158 10.1661 51.4485 10.938C53.5866 12.7236 54.7476 16.2941 54.9316 21.5053C55.0712 25.1724 54.6557 28.3569 54.6557 28.5018C54.5605 29.0808 54.1893 29.5152 53.723 29.6598C53.8181 29.7081 53.8625 29.7081 53.9576 29.7081C54.7 29.8047 55.398 29.2737 55.49 28.5018C55.5376 28.3569 55.9562 25.2207 55.8166 21.5053Z" fill="url(#paint23_linear_273_4784)"/>
<path fill-rule="evenodd" clip-rule="evenodd" d="M45.5448 12.9648C36.2022 16.487 33.7373 33.4235 33.7373 33.6164C33.6453 34.1954 33.2709 34.6298 32.8077 34.7744C32.8997 34.8227 32.9473 34.8227 33.0393 34.8227C33.0869 34.8227 33.179 34.8227 33.2266 34.8227C33.9245 34.8227 34.4796 34.292 34.5748 33.6164C34.6192 33.4235 37.0365 16.5353 46.3792 13.0128C47.0327 12.7716 47.5879 12.627 48.1018 12.5787C47.4039 12.4821 46.5187 12.627 45.5448 12.9648Z" fill="url(#paint24_linear_273_4784)"/>
<defs>
<linearGradient id="paint0_linear_273_4784" x1="44.2025" y1="12.6395" x2="42.7447" y2="32.4874" gradientUnits="userSpaceOnUse">
<stop stop-color="white" stop-opacity="0.65"/>
<stop offset="1" stop-color="white" stop-opacity="0.01"/>
</linearGradient>
<linearGradient id="paint1_linear_273_4784" x1="54.8557" y1="24.0005" x2="65.1194" y2="32.9902" gradientUnits="userSpaceOnUse">
<stop stop-opacity="0.01"/>
<stop offset="1" stop-opacity="0.4"/>
</linearGradient>
<linearGradient id="paint2_linear_273_4784" x1="50.7407" y1="34.3999" x2="61.6046" y2="24.281" gradientUnits="userSpaceOnUse">
<stop stop-opacity="0.01"/>
<stop offset="1" stop-opacity="0.4"/>
</linearGradient>
<linearGradient id="paint3_linear_273_4784" x1="36.9127" y1="4.8701" x2="-5.28336" y2="53.4891" gradientUnits="userSpaceOnUse">
<stop stop-color="#B8D26E"/>
<stop offset="1" stop-color="#7FB525"/>
</linearGradient>
<linearGradient id="paint4_linear_273_4784" x1="94.6338" y1="17.0423" x2="71.4758" y2="17.4723" gradientUnits="userSpaceOnUse">
<stop stop-color="#B4E034"/>
<stop offset="1" stop-color="#60A927"/>
</linearGradient>
<linearGradient id="paint5_linear_273_4784" x1="25.7521" y1="49.4614" x2="6.7656" y2="95.6972" gradientUnits="userSpaceOnUse">
<stop stop-color="white"/>
<stop offset="1" stop-color="#CECEEB"/>
</linearGradient>
<linearGradient id="paint6_linear_273_4784" x1="52.9742" y1="163.326" x2="83.0449" y2="163.265" gradientUnits="userSpaceOnUse">
<stop stop-color="#1D1D1B" stop-opacity="0.5"/>
<stop offset="0.038033" stop-color="#1D1D1B" stop-opacity="0.4837"/>
<stop offset="0.4243" stop-color="#1D1D1B" stop-opacity="0.3185"/>
<stop offset="1" stop-color="#1D1D1B" stop-opacity="0.01"/>
</linearGradient>
<linearGradient id="paint7_linear_273_4784" x1="56.4669" y1="18.605" x2="51.4782" y2="21.2899" gradientUnits="userSpaceOnUse">
<stop stop-opacity="0.01"/>
<stop offset="1" stop-opacity="0.4"/>
</linearGradient>
<linearGradient id="paint8_linear_273_4784" x1="35.5517" y1="26.5682" x2="32.0449" y2="29.582" gradientUnits="userSpaceOnUse">
<stop stop-opacity="0.01"/>
<stop offset="1" stop-opacity="0.4"/>
</linearGradient>
<linearGradient id="paint9_linear_273_4784" x1="69.7591" y1="87.4528" x2="70.1142" y2="92.133" gradientUnits="userSpaceOnUse">
<stop stop-opacity="0.01"/>
<stop offset="1" stop-opacity="0.4"/>
</linearGradient>
<linearGradient id="paint10_linear_273_4784" x1="61.4698" y1="80.6012" x2="62.2929" y2="92.7694" gradientUnits="userSpaceOnUse">
<stop stop-color="white" stop-opacity="0.5"/>
<stop offset="0.0896271" stop-color="white" stop-opacity="0.4552"/>
<stop offset="1" stop-color="white" stop-opacity="0.01"/>
</linearGradient>
<linearGradient id="paint11_linear_273_4784" x1="59.8867" y1="82.4938" x2="61.3509" y2="95.492" gradientUnits="userSpaceOnUse">
<stop stop-opacity="0.01"/>
<stop offset="1" stop-opacity="0.4"/>
</linearGradient>
<linearGradient id="paint12_linear_273_4784" x1="54.1416" y1="7.71023" x2="16.5897" y2="29.4288" gradientUnits="userSpaceOnUse">
<stop stop-color="white" stop-opacity="0.5"/>
<stop offset="1" stop-color="white" stop-opacity="0.01"/>
</linearGradient>
<linearGradient id="paint13_linear_273_4784" x1="61.3871" y1="121.219" x2="94.5319" y2="121.286" gradientUnits="userSpaceOnUse">
<stop stop-color="#1D1D1B" stop-opacity="0.5"/>
<stop offset="0.0896271" stop-color="#1D1D1B" stop-opacity="0.4552"/>
<stop offset="1" stop-color="#1D1D1B" stop-opacity="0.01"/>
</linearGradient>
<linearGradient id="paint14_linear_273_4784" x1="85.1231" y1="23.0069" x2="80.4147" y2="24.1606" gradientUnits="userSpaceOnUse">
<stop stop-color="white" stop-opacity="0.4"/>
<stop offset="1" stop-color="white" stop-opacity="0.01"/>
</linearGradient>
<linearGradient id="paint15_linear_273_4784" x1="42.8798" y1="93.5023" x2="45.3282" y2="81.6987" gradientUnits="userSpaceOnUse">
<stop stop-color="#1D1D1B" stop-opacity="0.5"/>
<stop offset="0.0896271" stop-color="#1D1D1B" stop-opacity="0.4552"/>
<stop offset="1" stop-color="#1D1D1B" stop-opacity="0.01"/>
</linearGradient>
<linearGradient id="paint16_linear_273_4784" x1="57.0348" y1="161.824" x2="87.2134" y2="161.85" gradientUnits="userSpaceOnUse">
<stop stop-color="#1D1D1B" stop-opacity="0.5"/>
<stop offset="1" stop-color="#1D1D1B" stop-opacity="0.01"/>
</linearGradient>
<linearGradient id="paint17_linear_273_4784" x1="29.4576" y1="15.4205" x2="14.8211" y2="71.6538" gradientUnits="userSpaceOnUse">
<stop stop-color="white" stop-opacity="0.5"/>
<stop offset="1" stop-color="white" stop-opacity="0.01"/>
</linearGradient>
<linearGradient id="paint18_linear_273_4784" x1="29.4576" y1="15.4205" x2="14.8211" y2="71.6538" gradientUnits="userSpaceOnUse">
<stop stop-color="white" stop-opacity="0.5"/>
<stop offset="1" stop-color="white" stop-opacity="0.01"/>
</linearGradient>
<linearGradient id="paint19_linear_273_4784" x1="64.9787" y1="74.3674" x2="53.4099" y2="90.2904" gradientUnits="userSpaceOnUse">
<stop stop-color="white" stop-opacity="0.5"/>
<stop offset="0.0896271" stop-color="white" stop-opacity="0.4552"/>
<stop offset="1" stop-color="white" stop-opacity="0.01"/>
</linearGradient>
<linearGradient id="paint20_linear_273_4784" x1="68.468" y1="78.0282" x2="67.3226" y2="80.5958" gradientUnits="userSpaceOnUse">
<stop stop-opacity="0.01"/>
<stop offset="1" stop-opacity="0.4"/>
</linearGradient>
<linearGradient id="paint21_linear_273_4784" x1="79.8281" y1="81.423" x2="79.7715" y2="82.1132" gradientUnits="userSpaceOnUse">
<stop stop-opacity="0.01"/>
<stop offset="1" stop-opacity="0.4"/>
</linearGradient>
<linearGradient id="paint22_linear_273_4784" x1="38.1685" y1="8.39735" x2="33.1673" y2="28.1549" gradientUnits="userSpaceOnUse">
<stop stop-color="white" stop-opacity="0.65"/>
<stop offset="1" stop-color="white" stop-opacity="0.01"/>
</linearGradient>
<linearGradient id="paint23_linear_273_4784" x1="49.361" y1="19.7946" x2="58.061" y2="28.6396" gradientUnits="userSpaceOnUse">
<stop stop-opacity="0.01"/>
<stop offset="1" stop-opacity="0.4"/>
</linearGradient>
<linearGradient id="paint24_linear_273_4784" x1="43.8001" y1="32.8199" x2="55.8204" y2="20.475" gradientUnits="userSpaceOnUse">
<stop stop-opacity="0.01"/>
<stop offset="1" stop-opacity="0.4"/>
</linearGradient>
</defs>
</svg>
