<svg width="103" height="103" viewBox="0 0 103 103" fill="none" xmlns="http://www.w3.org/2000/svg">
<circle cx="51.3184" cy="51.3184" r="44.9036" fill="#4B4B4B"/>
<path fill-rule="evenodd" clip-rule="evenodd" d="M76.9704 51.5039C76.9704 50.752 76.3931 50.3184 75.6846 50.5338L26.945 65.4095C26.2351 65.6263 25.6592 66.4125 25.6592 67.163V82.3666C25.6592 83.1185 26.2351 83.5534 26.945 83.3366L75.6846 68.4623C76.3931 68.2455 76.9704 67.4594 76.9704 66.7075V51.5039Z" fill="url(#paint0_linear_273_4777)"/>
<path fill-rule="evenodd" clip-rule="evenodd" d="M25.6592 51.0271C25.6592 51.779 26.2351 52.5651 26.945 52.7819L75.6918 67.659C76.4017 67.8758 76.9776 67.4408 76.9776 66.6903V51.4853C76.9776 50.7348 76.4017 49.9487 75.6918 49.7319L26.945 34.8548C26.2351 34.638 25.6592 35.0716 25.6592 35.8235V51.0271V51.0271Z" fill="#FF9800"/>
<path fill-rule="evenodd" clip-rule="evenodd" d="M76.9704 20.2702C76.9704 19.5183 76.3931 19.0834 75.6846 19.3002L26.945 34.1745C26.2351 34.3913 25.6592 35.1774 25.6592 35.9293V51.1329C25.6592 51.8848 26.2351 52.3184 26.945 52.103L75.6846 37.2273C76.3931 37.0105 76.9704 36.2243 76.9704 35.4738V20.2702Z" fill="#FF9800"/>
<defs>
<linearGradient id="paint0_linear_273_4777" x1="53.9405" y1="73.3674" x2="59.3469" y2="59.6249" gradientUnits="userSpaceOnUse">
<stop stop-color="#FF9700"/>
<stop offset="0.53" stop-color="#F48E00"/>
<stop offset="1" stop-color="#D06F00"/>
</linearGradient>
</defs>
</svg>
