<svg width="29" height="29" viewBox="0 0 29 29" fill="none" xmlns="http://www.w3.org/2000/svg">
<path d="M2.35291 3.11765H4.39997C5.67056 3.11765 6.67055 4.21176 6.56467 5.47059L5.5882 17.1882C5.42349 19.1059 6.94113 20.7529 8.87054 20.7529H21.4C23.0941 20.7529 24.5764 19.3647 24.7058 17.6824L25.3411 8.85883C25.4823 6.90589 24 5.31764 22.0353 5.31764H6.84703" stroke="white" stroke-width="1.76471" stroke-miterlimit="10" stroke-linecap="round" stroke-linejoin="round"/>
<path d="M19.1176 26.647C19.9297 26.647 20.5881 25.9886 20.5881 25.1765C20.5881 24.3643 19.9297 23.7059 19.1176 23.7059C18.3054 23.7059 17.647 24.3643 17.647 25.1765C17.647 25.9886 18.3054 26.647 19.1176 26.647Z" stroke="white" stroke-width="1.76471" stroke-miterlimit="10" stroke-linecap="round" stroke-linejoin="round"/>
<path d="M9.70582 26.647C10.518 26.647 11.1764 25.9886 11.1764 25.1765C11.1764 24.3643 10.518 23.7059 9.70582 23.7059C8.89363 23.7059 8.23523 24.3643 8.23523 25.1765C8.23523 25.9886 8.89363 26.647 9.70582 26.647Z" stroke="white" stroke-width="1.76471" stroke-miterlimit="10" stroke-linecap="round" stroke-linejoin="round"/>
<path d="M10.5883 10.1765H24.7059" stroke="white" stroke-width="1.76471" stroke-miterlimit="10" stroke-linecap="round" stroke-linejoin="round"/>
</svg>
