<svg width="15" height="15" viewBox="0 0 15 15" fill="none" xmlns="http://www.w3.org/2000/svg">
<path d="M13.7501 10.4626V2.91883C13.7501 2.16882 13.1375 1.61257 12.3938 1.67507H12.3563C11.0438 1.78757 9.05003 2.45633 7.93753 3.15633L7.83128 3.22508C7.65003 3.33758 7.35003 3.33758 7.16878 3.22508L7.01252 3.13133C5.90002 2.43758 3.91251 1.77507 2.60001 1.66882C1.85625 1.60632 1.25 2.16882 1.25 2.91258V10.4626C1.25 11.0626 1.7375 11.6251 2.3375 11.7001L2.51876 11.7251C3.87501 11.9064 5.96877 12.5939 7.16878 13.2501L7.19378 13.2626C7.36253 13.3564 7.63128 13.3564 7.79378 13.2626C8.99378 12.6001 11.0938 11.9064 12.4563 11.7251L12.6625 11.7001C13.2626 11.6251 13.7501 11.0626 13.7501 10.4626Z" stroke="#292D32" stroke-width="0.937504" stroke-linecap="round" stroke-linejoin="round"/>
<path d="M7.5 3.43134V12.8064" stroke="#292D32" stroke-width="0.937504" stroke-linecap="round" stroke-linejoin="round"/>
<path d="M4.84388 5.30634H3.43762" stroke="#292D32" stroke-width="0.937504" stroke-linecap="round" stroke-linejoin="round"/>
<path d="M5.31263 7.18135H3.43762" stroke="#292D32" stroke-width="0.937504" stroke-linecap="round" stroke-linejoin="round"/>
</svg>
