<svg width="15" height="15" viewBox="0 0 15 15" fill="none" xmlns="http://www.w3.org/2000/svg">
<path d="M11.2375 6.74376V9.24376C11.2375 9.40626 11.2313 9.56251 11.2125 9.71251C11.0688 11.4 10.075 12.2375 8.24375 12.2375H7.99376C7.83751 12.2375 7.6875 12.3125 7.59375 12.4375L6.84376 13.4375C6.51251 13.8812 5.975 13.8812 5.64375 13.4375L4.89374 12.4375C4.81249 12.3312 4.63125 12.2375 4.49375 12.2375H4.24376C2.25001 12.2375 1.25 11.7438 1.25 9.24376V6.74376C1.25 4.91251 2.09376 3.91876 3.77501 3.77501C3.92501 3.75626 4.08126 3.75 4.24376 3.75H8.24375C10.2375 3.75 11.2375 4.75001 11.2375 6.74376Z" stroke="black" stroke-width="1.5" stroke-miterlimit="10" stroke-linecap="round" stroke-linejoin="round"/>
<path d="M13.7375 4.24376V6.74376C13.7375 8.58126 12.8938 9.56876 11.2125 9.71251C11.2313 9.56251 11.2375 9.40626 11.2375 9.24376V6.74376C11.2375 4.75001 10.2375 3.75 8.24377 3.75H4.24377C4.08127 3.75 3.92502 3.75626 3.77502 3.77501C3.91877 2.09376 4.91252 1.25 6.74377 1.25H10.7438C12.7375 1.25 13.7375 2.25001 13.7375 4.24376Z" stroke="black" stroke-width="1.5" stroke-miterlimit="10" stroke-linecap="round" stroke-linejoin="round"/>
<path d="M8.43469 8.28125H8.44031" stroke="black" stroke-width="1.5" stroke-linecap="round" stroke-linejoin="round"/>
<path d="M6.24719 8.28125H6.25281" stroke="black" stroke-width="1.5" stroke-linecap="round" stroke-linejoin="round"/>
<path d="M4.05969 8.28125H4.06531" stroke="black" stroke-width="1.5" stroke-linecap="round" stroke-linejoin="round"/>
</svg>
