<svg width="15" height="15" viewBox="0 0 15 15" fill="none" xmlns="http://www.w3.org/2000/svg">
<g clip-path="url(#clip0_76_857)">
<path d="M13.75 6.92501V7.50001C13.7492 8.84777 13.3128 10.1592 12.5058 11.2386C11.6989 12.3181 10.5645 13.1078 9.27209 13.4899C7.97964 13.8721 6.59828 13.8262 5.33404 13.3591C4.0698 12.892 2.99041 12.0288 2.25685 10.8982C1.52329 9.76753 1.17487 8.43005 1.26354 7.0852C1.35222 5.74036 1.87325 4.46021 2.74892 3.43568C3.62459 2.41114 4.80799 1.69712 6.12261 1.4001C7.43724 1.10308 8.81266 1.23897 10.0437 1.78751" stroke="black" stroke-linecap="round" stroke-linejoin="round"/>
<path d="M13.75 2.5L7.5 8.75625L5.625 6.88125" stroke="black" stroke-linecap="round" stroke-linejoin="round"/>
</g>
<defs>
<clipPath id="clip0_76_857">
<rect width="15" height="15" fill="white"/>
</clipPath>
</defs>
</svg>
