<svg width="15" height="15" viewBox="0 0 15 15" fill="none" xmlns="http://www.w3.org/2000/svg">
<path d="M13.4999 6.37513H7.6249V8.68764H11.0624C10.9999 9.25014 10.6249 10.1251 9.81241 10.6877C9.31241 11.0627 8.56241 11.3127 7.6249 11.3127C5.9999 11.3127 4.56239 10.2501 4.06239 8.68764C3.93739 8.31264 3.87489 7.87514 3.87489 7.43764C3.87489 7.00013 3.93739 6.56263 4.06239 6.18763C4.12489 6.06263 4.12489 5.93763 4.18739 5.87513C4.74989 4.56262 6.0624 3.62512 7.6249 3.62512C8.81241 3.62512 9.56241 4.12512 10.0624 4.56262L11.8124 2.81262C10.7499 1.87511 9.31241 1.25011 7.6249 1.25011C5.18739 1.25011 3.06238 2.62512 2.06238 4.68763C1.62488 5.56263 1.37488 6.50013 1.37488 7.50014C1.37488 8.50014 1.62488 9.43764 2.06238 10.3126C3.06238 12.3752 5.18739 13.7502 7.6249 13.7502C9.31241 13.7502 10.7499 13.1877 11.7499 12.2502C12.9374 11.1877 13.6249 9.56265 13.6249 7.62514C13.6249 7.12514 13.5624 6.75013 13.4999 6.37513Z" stroke="#17191C" stroke-width="0.937504" stroke-miterlimit="10" stroke-linecap="round" stroke-linejoin="round"/>
</svg>
