<svg width="50" height="50" viewBox="0 0 50 50" fill="none" xmlns="http://www.w3.org/2000/svg">
<rect width="50" height="50" rx="25" fill="white"/>
<path d="M43 25.3997C43 23.9199 42.8775 22.84 42.6123 21.7202H25.3695V28.3993H35.4906C35.2867 30.0591 34.1848 32.5589 31.736 34.2386L31.7017 34.4622L37.1536 38.6012L37.5313 38.6381C41.0002 35.4985 43 30.879 43 25.3997" fill="#4285F4"/>
<path d="M25.3683 42.9978C30.3268 42.9978 34.4895 41.3979 37.5301 38.6383L31.7349 34.2387C30.1841 35.2986 28.1026 36.0385 25.3683 36.0385C20.5118 36.0385 16.3899 32.899 14.9206 28.5594L14.7052 28.5774L9.03632 32.8769L8.96219 33.0789C11.9822 38.9582 18.1855 42.9978 25.3683 42.9978Z" fill="#34A853"/>
<path d="M14.9217 28.5596C14.534 27.4397 14.3096 26.2398 14.3096 25C14.3096 23.7601 14.534 22.5602 14.9013 21.4404L14.891 21.2019L9.15109 16.8333L8.96329 16.9209C7.7186 19.3606 7.00439 22.1003 7.00439 25C7.00439 27.8996 7.7186 30.6392 8.96329 33.0789L14.9217 28.5596" fill="#FBBC05"/>
<path d="M25.3684 13.9613C28.817 13.9613 31.1432 15.4211 32.4696 16.641L37.6526 11.6816C34.4694 8.78196 30.327 7.00217 25.3684 7.00217C18.1856 7.00217 11.9822 11.0416 8.96219 16.9209L14.9002 21.4404C16.39 17.1009 20.5119 13.9613 25.3684 13.9613" fill="#EB4335"/>
</svg>
