<svg width="24" height="25" viewBox="0 0 24 25" fill="none" xmlns="http://www.w3.org/2000/svg">
<path d="M17 2.63672H7C4.23858 2.63672 2 4.87529 2 7.63672V17.6367C2 20.3981 4.23858 22.6367 7 22.6367H17C19.7614 22.6367 22 20.3981 22 17.6367V7.63672C22 4.87529 19.7614 2.63672 17 2.63672Z" fill="url(#paint0_linear_273_4920)"/>
<path d="M16 4.63672H8C5.79086 4.63672 4 6.42758 4 8.63672V16.6367C4 18.8459 5.79086 20.6367 8 20.6367H16C18.2091 20.6367 20 18.8459 20 16.6367V8.63672C20 6.42758 18.2091 4.63672 16 4.63672Z" stroke="white" stroke-linecap="round" stroke-linejoin="round"/>
<path d="M16 12.007C16.1234 12.8393 15.9812 13.6892 15.5937 14.436C15.2062 15.1828 14.5931 15.7884 13.8416 16.1667C13.0901 16.545 12.2384 16.6766 11.4077 16.543C10.5771 16.4093 9.80971 16.0171 9.21479 15.4222C8.61987 14.8273 8.22768 14.0599 8.09402 13.2292C7.96035 12.3986 8.09202 11.5469 8.47028 10.7954C8.84854 10.0439 9.45414 9.43076 10.2009 9.04326C10.9477 8.65576 11.7977 8.51361 12.63 8.63702C13.4789 8.7629 14.2648 9.15848 14.8716 9.76533C15.4785 10.3722 15.8741 11.1581 16 12.007Z" stroke="white" stroke-linecap="round" stroke-linejoin="round"/>
<path d="M17 7.63672H17.01" stroke="white" stroke-linecap="round" stroke-linejoin="round"/>
<defs>
<linearGradient id="paint0_linear_273_4920" x1="12" y1="2.63672" x2="12" y2="22.6367" gradientUnits="userSpaceOnUse">
<stop stop-color="#405DE6"/>
<stop offset="1" stop-color="#C13584"/>
</linearGradient>
</defs>
</svg>
