<svg width="144" height="62" viewBox="0 0 144 62" fill="none" xmlns="http://www.w3.org/2000/svg">
<path d="M2.37757 59.5852C1.33879 43.801 1.00105 35.4571 16.9093 33.0275C24.8789 31.8103 29.1201 34.1733 31.7653 40.9886C33.5238 45.5192 26.3117 47.1475 24.5072 42.4983C22.1525 36.4314 22.2778 29.576 25.7432 23.7884C33.8362 10.2726 57.0505 13.0494 68.6654 18.169C73.2803 20.2031 77.811 29.1894 69.823 27.888C64.1813 26.9689 63.8993 17.991 65.7653 14.0652C74.2185 -3.71845 95.5868 3.66519 108.978 9.56787C113.477 11.5512 122.76 16.512 125.641 20.3138C127.976 23.3953 131.034 9.04754 128.837 16.3859C127.567 20.6325 124.317 27.3549 120.152 29.5621C118.143 30.6268 130.862 28.7138 132.935 28.8134C136.412 28.9804 144.647 29.8851 140.978 26.7082C137.941 24.0777 133.218 19.439 131.835 15.8761" stroke="#FFA360" stroke-width="3.80864" stroke-linecap="round"/>
</svg>
