<svg width="15" height="15" viewBox="0 0 15 15" fill="none" xmlns="http://www.w3.org/2000/svg">
<path d="M5.72499 6.79377C5.66249 6.78752 5.58749 6.78752 5.51874 6.79377C4.03123 6.74377 2.84998 5.52502 2.84998 4.02501C2.84998 2.49376 4.08748 1.25 5.62499 1.25C7.15624 1.25 8.4 2.49376 8.4 4.02501C8.39375 5.52502 7.21249 6.74377 5.72499 6.79377Z" stroke="#292D32" stroke-width="0.937504" stroke-linecap="round" stroke-linejoin="round"/>
<path d="M10.2563 2.50002C11.4688 2.50002 12.4438 3.48127 12.4438 4.68752C12.4438 5.86878 11.5063 6.83128 10.3375 6.87503C10.2875 6.86878 10.2313 6.86878 10.175 6.87503" stroke="#292D32" stroke-width="0.937504" stroke-linecap="round" stroke-linejoin="round"/>
<path d="M2.60008 9.10003C1.08757 10.1125 1.08757 11.7625 2.60008 12.7688C4.31884 13.9188 7.1376 13.9188 8.85635 12.7688C10.3689 11.7563 10.3689 10.1063 8.85635 9.10003C7.14385 7.95628 4.32509 7.95628 2.60008 9.10003Z" stroke="#292D32" stroke-width="0.937504" stroke-linecap="round" stroke-linejoin="round"/>
<path d="M11.4625 12.5C11.9125 12.4063 12.3375 12.225 12.6875 11.9563C13.6625 11.225 13.6625 10.0188 12.6875 9.28753C12.3438 9.02503 11.925 8.85003 11.4813 8.75003" stroke="#292D32" stroke-width="0.937504" stroke-linecap="round" stroke-linejoin="round"/>
</svg>
