<svg width="24" height="25" viewBox="0 0 24 25" fill="none" xmlns="http://www.w3.org/2000/svg">
<path d="M16 8.07812C17.5913 8.07812 19.1174 8.71027 20.2426 9.83548C21.3679 10.9607 22 12.4868 22 14.0781V21.0781H18V14.0781C18 13.5477 17.7893 13.039 17.4142 12.6639C17.0391 12.2888 16.5304 12.0781 16 12.0781C15.4696 12.0781 14.9609 12.2888 14.5858 12.6639C14.2107 13.039 14 13.5477 14 14.0781V21.0781H10V14.0781C10 12.4868 10.6321 10.9607 11.7574 9.83548C12.8826 8.71027 14.4087 8.07812 16 8.07812Z" fill="#0072B1"/>
<path d="M6 9.07812H2V21.0781H6V9.07812Z" fill="#0072B1"/>
<path d="M4 6.07812C5.10457 6.07812 6 5.18269 6 4.07812C6 2.97356 5.10457 2.07812 4 2.07812C2.89543 2.07812 2 2.97356 2 4.07812C2 5.18269 2.89543 6.07812 4 6.07812Z" fill="#0072B1"/>
</svg>
