<svg width="15" height="15" viewBox="0 0 15 15" fill="none" xmlns="http://www.w3.org/2000/svg">
<path d="M3.49998 5.2375H2.5C2.15625 5.2375 1.875 5.51875 1.875 5.8625V11.25C1.875 11.5938 2.15625 11.875 2.5 11.875H3.49998C3.84373 11.875 4.12498 11.5938 4.12498 11.25V5.8625C4.12498 5.51875 3.84373 5.2375 3.49998 5.2375Z" fill="black"/>
<path d="M7.99998 3.24374H7C6.65625 3.24374 6.375 3.52499 6.375 3.86874V11.25C6.375 11.5937 6.65625 11.875 7 11.875H7.99998C8.34373 11.875 8.62498 11.5937 8.62498 11.25V3.86874C8.62498 3.52499 8.34373 3.24374 7.99998 3.24374Z" fill="black"/>
<path d="M12.5 1.25H11.5C11.1562 1.25 10.875 1.53125 10.875 1.875V11.25C10.875 11.5938 11.1562 11.875 11.5 11.875H12.5C12.8437 11.875 13.125 11.5938 13.125 11.25V1.875C13.125 1.53125 12.8437 1.25 12.5 1.25Z" stroke="black" stroke-linecap="round" stroke-linejoin="round"/>
</svg>
