<svg width="22" height="19" viewBox="0 0 22 19" fill="none" xmlns="http://www.w3.org/2000/svg">
<path d="M22 0.637009C21.0424 1.31249 19.9821 1.82912 18.86 2.16701C18.2577 1.47452 17.4573 0.983701 16.567 0.760935C15.6767 0.538169 14.7395 0.594204 13.8821 0.921462C13.0247 1.24872 12.2884 1.83141 11.773 2.59073C11.2575 3.35004 10.9877 4.24934 11 5.16701V6.16701C9.24263 6.21258 7.50127 5.82282 5.93101 5.03245C4.36074 4.24209 3.01032 3.07564 2 1.63701C2 1.63701 -2 10.637 7 14.637C4.94053 16.035 2.48716 16.7359 0 16.637C9 21.637 20 16.637 20 5.13701C19.9991 4.85846 19.9723 4.5806 19.92 4.30701C20.9406 3.3005 21.6608 2.02972 22 0.637009Z" fill="#00ACEE"/>
</svg>
