<svg width="24" height="25" viewBox="0 0 24 25" fill="none" xmlns="http://www.w3.org/2000/svg">
<path d="M22 17.3769V5.30691C22 4.10691 21.02 3.21691 19.83 3.31691H19.77C17.67 3.49691 14.48 4.56691 12.7 5.68691L12.53 5.79691C12.24 5.97691 11.76 5.97691 11.47 5.79691L11.22 5.64691C9.44 4.53691 6.26 3.47691 4.16 3.30691C2.97 3.20691 2 4.10691 2 5.29691V17.3769C2 18.3369 2.78 19.2369 3.74 19.3569L4.03 19.3969C6.2 19.6869 9.55 20.7869 11.47 21.8369L11.51 21.8569C11.78 22.0069 12.21 22.0069 12.47 21.8569C14.39 20.7969 17.75 19.6869 19.93 19.3969L20.26 19.3569C21.22 19.2369 22 18.3369 22 17.3769Z" stroke="#292D32" stroke-width="1.5" stroke-linecap="round" stroke-linejoin="round"/>
<path d="M12 6.12695V21.127" stroke="#292D32" stroke-width="1.5" stroke-linecap="round" stroke-linejoin="round"/>
<path d="M7.75 9.12695H5.5" stroke="#292D32" stroke-width="1.5" stroke-linecap="round" stroke-linejoin="round"/>
<path d="M8.5 12.127H5.5" stroke="#292D32" stroke-width="1.5" stroke-linecap="round" stroke-linejoin="round"/>
</svg>
