<svg width="45" height="45" viewBox="0 0 45 45" fill="none" xmlns="http://www.w3.org/2000/svg">
<circle cx="22.5" cy="22.5" r="22.5" fill="white"/>
<path d="M14.75 17.5H16.5833H31.25" stroke="#FF0000" stroke-width="1.83333" stroke-linecap="round" stroke-linejoin="round"/>
<path d="M29.4166 17.5V30.3334C29.4166 30.8196 29.2235 31.2859 28.8797 31.6297C28.5359 31.9736 28.0695 32.1667 27.5833 32.1667H18.4166C17.9304 32.1667 17.4641 31.9736 17.1203 31.6297C16.7765 31.2859 16.5833 30.8196 16.5833 30.3334V17.5M19.3333 17.5V15.6667C19.3333 15.1805 19.5265 14.7142 19.8703 14.3703C20.2141 14.0265 20.6804 13.8334 21.1666 13.8334H24.8333C25.3195 13.8334 25.7859 14.0265 26.1297 14.3703C26.4735 14.7142 26.6666 15.1805 26.6666 15.6667V17.5" stroke="#FF0000" stroke-width="1.83333" stroke-linecap="round" stroke-linejoin="round"/>
<path d="M21.1667 22.0834V27.5834" stroke="#FF0000" stroke-width="1.83333" stroke-linecap="round" stroke-linejoin="round"/>
<path d="M24.8333 22.0834V27.5834" stroke="#FF0000" stroke-width="1.83333" stroke-linecap="round" stroke-linejoin="round"/>
</svg>
