<svg width="32" height="32" viewBox="0 0 32 32" fill="none" xmlns="http://www.w3.org/2000/svg">
<path d="M28 8.66663C28 11.24 25.9067 13.3333 23.3333 13.3333C20.76 13.3333 18.6667 11.24 18.6667 8.66663C18.6667 6.0933 20.76 3.99997 23.3333 3.99997C25.9067 3.99997 28 6.0933 28 8.66663ZM25.3333 15.72C24.6667 15.8933 24 16 23.3333 16C21.3895 15.9964 19.5263 15.2227 18.1518 13.8482C16.7773 12.4737 16.0035 10.6105 16 8.66663C16 6.70663 16.7733 4.9333 18 3.6133C17.758 3.31669 17.4529 3.07779 17.1069 2.91403C16.761 2.75026 16.3828 2.66574 16 2.66663C14.5333 2.66663 13.3333 3.86663 13.3333 5.3333V5.71997C9.37333 6.8933 6.66667 10.5333 6.66667 14.6666V22.6666L4 25.3333V26.6666H28V25.3333L25.3333 22.6666V15.72ZM16 30.6666C17.48 30.6666 18.6667 29.48 18.6667 28H13.3333C13.3333 28.7072 13.6143 29.3855 14.1144 29.8856C14.6145 30.3857 15.2928 30.6666 16 30.6666Z" fill="#1F2937"/>
</svg>
