<svg width="50" height="50" viewBox="0 0 50 50" fill="none" xmlns="http://www.w3.org/2000/svg">
<rect width="50" height="50" fill="#6B70EC"/>
<path d="M34.9166 29.6667V32.5833C34.9166 34.835 33.085 36.6667 30.8333 36.6667H19.1666C16.915 36.6667 15.0833 34.835 15.0833 32.5833V31.825C15.0833 29.9933 16.5766 28.5 18.4083 28.5H33.75C34.3916 28.5 34.9166 29.025 34.9166 29.6667Z" fill="#FFA360"/>
<path d="M29.0833 13.3333H20.9166C16.25 13.3333 15.0833 14.5 15.0833 19.1666V28.01C15.97 27.2283 17.1366 26.75 18.4083 26.75H33.75C34.3916 26.75 34.9166 26.225 34.9166 25.5833V19.1666C34.9166 14.5 33.75 13.3333 29.0833 13.3333ZM26.1666 23.5416H20.3333C19.855 23.5416 19.4583 23.145 19.4583 22.6666C19.4583 22.1883 19.855 21.7916 20.3333 21.7916H26.1666C26.645 21.7916 27.0416 22.1883 27.0416 22.6666C27.0416 23.145 26.645 23.5416 26.1666 23.5416ZM29.6666 19.4583H20.3333C19.855 19.4583 19.4583 19.0616 19.4583 18.5833C19.4583 18.105 19.855 17.7083 20.3333 17.7083H29.6666C30.145 17.7083 30.5416 18.105 30.5416 18.5833C30.5416 19.0616 30.145 19.4583 29.6666 19.4583Z" fill="#FFA360"/>
</svg>
