<svg width="50" height="50" viewBox="0 0 50 50" fill="none" xmlns="http://www.w3.org/2000/svg">
<rect width="50" height="50" fill="#FFA360"/>
<path d="M30 16.5H20C17 16.5 15 18 15 21.5V28.5C15 32 17 33.5 20 33.5H30C33 33.5 35 32 35 28.5V21.5C35 18 33 16.5 30 16.5ZM19.25 27.5C19.25 27.91 18.91 28.25 18.5 28.25C18.09 28.25 17.75 27.91 17.75 27.5V22.5C17.75 22.09 18.09 21.75 18.5 21.75C18.91 21.75 19.25 22.09 19.25 22.5V27.5ZM25 28C23.34 28 22 26.66 22 25C22 23.34 23.34 22 25 22C26.66 22 28 23.34 28 25C28 26.66 26.66 28 25 28ZM32.25 27.5C32.25 27.91 31.91 28.25 31.5 28.25C31.09 28.25 30.75 27.91 30.75 27.5V22.5C30.75 22.09 31.09 21.75 31.5 21.75C31.91 21.75 32.25 22.09 32.25 22.5V27.5Z" fill="#6B70EC"/>
</svg>
