<svg width="50" height="50" viewBox="0 0 50 50" fill="none" xmlns="http://www.w3.org/2000/svg">
<rect width="50" height="50" fill="#FFA360"/>
<path d="M31.4517 20.0649C31.37 20.0533 31.2884 20.0533 31.2067 20.0649C29.3984 20.0066 27.9634 18.5249 27.9634 16.7049C27.9634 14.8499 29.4684 13.3333 31.335 13.3333C33.19 13.3333 34.7067 14.8383 34.7067 16.7049C34.695 18.5249 33.26 20.0066 31.4517 20.0649Z" fill="#6B70EC"/>
<path d="M35.255 28.15C33.9484 29.025 32.1167 29.3516 30.425 29.13C30.8684 28.1733 31.1017 27.1116 31.1134 25.9916C31.1134 24.825 30.8567 23.7166 30.3667 22.7483C32.0934 22.515 33.925 22.8416 35.2434 23.7166C37.0867 24.93 37.0867 26.925 35.255 28.15Z" fill="#6B70EC"/>
<path d="M18.5134 20.0649C18.595 20.0533 18.6767 20.0533 18.7584 20.0649C20.5667 20.0066 22.0017 18.5249 22.0017 16.7049C22.0017 14.8383 20.4967 13.3333 18.63 13.3333C16.775 13.3333 15.27 14.8383 15.27 16.7049C15.27 18.5249 16.705 20.0066 18.5134 20.0649Z" fill="#6B70EC"/>
<path d="M18.6418 25.9916C18.6418 27.1233 18.8868 28.1966 19.3301 29.165C17.6851 29.34 15.9701 28.99 14.7101 28.1616C12.8668 26.9366 12.8668 24.9416 14.7101 23.7166C15.9585 22.8766 17.7201 22.5383 19.3768 22.725C18.8985 23.705 18.6418 24.8133 18.6418 25.9916Z" fill="#6B70EC"/>
<path d="M25.1401 29.515C25.0468 29.5033 24.9418 29.5033 24.8368 29.515C22.6901 29.445 20.9751 27.6833 20.9751 25.5133C20.9868 23.2967 22.7718 21.5 25.0001 21.5C27.2168 21.5 29.0134 23.2967 29.0134 25.5133C29.0018 27.6833 27.2984 29.445 25.1401 29.515Z" fill="#6B70EC"/>
<path d="M21.3481 31.9301C19.5864 33.1084 19.5864 35.0451 21.3481 36.2117C23.3548 37.5534 26.6448 37.5534 28.6514 36.2117C30.4131 35.0334 30.4131 33.0967 28.6514 31.9301C26.6564 30.5884 23.3664 30.5884 21.3481 31.9301Z" fill="#6B70EC"/>
</svg>
