<svg width="50" height="50" viewBox="0 0 50 50" fill="none" xmlns="http://www.w3.org/2000/svg">
<rect width="50" height="50" fill="#6B70EC"/>
<path d="M31.4517 20.065C31.37 20.0533 31.2883 20.0533 31.2067 20.065C29.3983 20.0066 27.9633 18.525 27.9633 16.705C27.9633 14.85 29.4683 13.3333 31.335 13.3333C33.19 13.3333 34.7067 14.8383 34.7067 16.705C34.695 18.525 33.26 20.0066 31.4517 20.065Z" fill="#FFA360"/>
<path d="M35.255 28.15C33.9484 29.025 32.1167 29.3516 30.425 29.13C30.8684 28.1733 31.1017 27.1116 31.1134 25.9916C31.1134 24.825 30.8567 23.7166 30.3667 22.7483C32.0934 22.515 33.925 22.8416 35.2434 23.7166C37.0867 24.93 37.0867 26.925 35.255 28.15Z" fill="#FFA360"/>
<path d="M18.5134 20.065C18.595 20.0533 18.6767 20.0533 18.7584 20.065C20.5667 20.0066 22.0017 18.525 22.0017 16.705C22.0017 14.8383 20.4967 13.3333 18.63 13.3333C16.775 13.3333 15.27 14.8383 15.27 16.705C15.27 18.525 16.705 20.0066 18.5134 20.065Z" fill="#FFA360"/>
<path d="M18.6417 25.9917C18.6417 27.1234 18.8867 28.1967 19.33 29.165C17.685 29.34 15.97 28.99 14.71 28.1617C12.8667 26.9367 12.8667 24.9417 14.71 23.7167C15.9583 22.8767 17.72 22.5384 19.3767 22.725C18.8983 23.705 18.6417 24.8134 18.6417 25.9917Z" fill="#FFA360"/>
<path d="M25.14 29.515C25.0466 29.5033 24.9416 29.5033 24.8366 29.515C22.69 29.445 20.975 27.6833 20.975 25.5133C20.9866 23.2967 22.7716 21.5 25 21.5C27.2166 21.5 29.0133 23.2967 29.0133 25.5133C29.0016 27.6833 27.2983 29.445 25.14 29.515Z" fill="#FFA360"/>
<path d="M21.3483 31.93C19.5867 33.1084 19.5867 35.045 21.3483 36.2117C23.355 37.5534 26.645 37.5534 28.6517 36.2117C30.4134 35.0334 30.4134 33.0967 28.6517 31.93C26.6567 30.5884 23.3667 30.5884 21.3483 31.93Z" fill="#FFA360"/>
</svg>
