<svg width="50" height="50" viewBox="0 0 50 50" fill="none" xmlns="http://www.w3.org/2000/svg">
<rect width="50" height="50" fill="#6B70EC"/>
<path d="M33.365 18.7467C32.8633 16.215 30.985 15.1067 28.3717 15.1067H18.1283C15.0483 15.1067 12.995 16.6467 12.995 20.24V26.2484C12.995 28.8384 14.0567 30.355 15.8067 31.0084C16.0633 31.1017 16.3433 31.1834 16.635 31.23C17.1017 31.335 17.6033 31.3817 18.1283 31.3817H28.3833C31.4633 31.3817 33.5167 29.8417 33.5167 26.2484V20.24C33.5167 19.6917 33.47 19.2017 33.365 18.7467ZM17.4517 25C17.4517 25.4784 17.055 25.875 16.5767 25.875C16.0983 25.875 15.7017 25.4784 15.7017 25V21.5C15.7017 21.0217 16.0983 20.625 16.5767 20.625C17.055 20.625 17.4517 21.0217 17.4517 21.5V25ZM23.25 26.33C21.5467 26.33 20.17 24.9534 20.17 23.25C20.17 21.5467 21.5467 20.17 23.25 20.17C24.9533 20.17 26.33 21.5467 26.33 23.25C26.33 24.9534 24.9533 26.33 23.25 26.33ZM30.7867 25C30.7867 25.4784 30.39 25.875 29.9117 25.875C29.4333 25.875 29.0367 25.4784 29.0367 25V21.5C29.0367 21.0217 29.4333 20.625 29.9117 20.625C30.39 20.625 30.7867 21.0217 30.7867 21.5V25Z" fill="#FFA360"/>
<path d="M37.0167 23.74V29.7483C37.0167 33.3417 34.9633 34.8933 31.8717 34.8933H21.6283C20.7533 34.8933 19.9717 34.765 19.295 34.5083C18.7467 34.31 18.2683 34.0183 17.8833 33.645C17.6733 33.4467 17.8367 33.1317 18.1283 33.1317H28.3717C32.6883 33.1317 35.255 30.565 35.255 26.26V20.24C35.255 19.96 35.57 19.785 35.7683 19.995C36.5617 20.835 37.0167 22.06 37.0167 23.74Z" fill="#FFA360"/>
</svg>
