<svg width="45" height="45" viewBox="0 0 45 45" fill="none" xmlns="http://www.w3.org/2000/svg">
<circle cx="22.5" cy="22.5" r="22.5" fill="white"/>
<path d="M14.75 17.5H16.5833H31.25" stroke="#FF0000" stroke-width="1.83333" stroke-linecap="round" stroke-linejoin="round"/>
<path d="M29.4167 17.4999V30.3333C29.4167 30.8195 29.2236 31.2858 28.8797 31.6296C28.5359 31.9734 28.0696 32.1666 27.5834 32.1666H18.4167C17.9305 32.1666 17.4642 31.9734 17.1203 31.6296C16.7765 31.2858 16.5834 30.8195 16.5834 30.3333V17.4999M19.3334 17.4999V15.6666C19.3334 15.1804 19.5265 14.714 19.8703 14.3702C20.2142 14.0264 20.6805 13.8333 21.1667 13.8333H24.8334C25.3196 13.8333 25.7859 14.0264 26.1297 14.3702C26.4736 14.714 26.6667 15.1804 26.6667 15.6666V17.4999" stroke="#FF0000" stroke-width="1.83333" stroke-linecap="round" stroke-linejoin="round"/>
<path d="M21.1666 22.0833V27.5833" stroke="#FF0000" stroke-width="1.83333" stroke-linecap="round" stroke-linejoin="round"/>
<path d="M24.8334 22.0833V27.5833" stroke="#FF0000" stroke-width="1.83333" stroke-linecap="round" stroke-linejoin="round"/>
</svg>
