<svg width="50" height="50" viewBox="0 0 50 50" fill="none" xmlns="http://www.w3.org/2000/svg">
<rect width="50" height="50" fill="#FFA360"/>
<path d="M29.8885 13.3333H20.1118C15.8652 13.3333 13.3335 15.8649 13.3335 20.1116V29.8883C13.3335 33.1666 14.8385 35.4183 17.4868 36.2699C18.2568 36.5383 19.1435 36.6666 20.1118 36.6666H29.8885C30.8568 36.6666 31.7435 36.5383 32.5135 36.2699C35.1618 35.4183 36.6668 33.1666 36.6668 29.8883V20.1116C36.6668 15.8649 34.1352 13.3333 29.8885 13.3333ZM34.9168 29.8883C34.9168 32.3849 33.9368 33.9599 31.9652 34.6133C30.8335 32.3849 28.1502 30.7983 25.0002 30.7983C21.8502 30.7983 19.1785 32.3733 18.0352 34.6133H18.0235C16.0752 33.9833 15.0835 32.3966 15.0835 29.8999V20.1116C15.0835 16.8216 16.8218 15.0833 20.1118 15.0833H29.8885C33.1785 15.0833 34.9168 16.8216 34.9168 20.1116V29.8883Z" fill="#6B70EC"/>
<path d="M25.0004 20.3333C22.6904 20.3333 20.8237 22.1999 20.8237 24.5099C20.8237 26.8199 22.6904 28.6983 25.0004 28.6983C27.3104 28.6983 29.1771 26.8199 29.1771 24.5099C29.1771 22.1999 27.3104 20.3333 25.0004 20.3333Z" fill="#6B70EC"/>
</svg>
